<svg xmlns="http://www.w3.org/2000/svg" viewBox="0 0 88 81" fill="none">
    <path d="M4.27254e-05 51.6264L9.55538 46.3169C10.5234 45.7793 11.4987 45.2453 12.4667 44.6966C12.5683 44.632 12.6816 44.5886 12.7999 44.5689C12.9183 44.5491 13.0394 44.5535 13.156 44.5816C19.9499 46.0304 26.8826 46.707 33.825 46.5987C39.4827 46.5282 45.1037 46.0351 50.6294 44.7448C53.7003 44.0736 56.6627 42.969 59.4294 41.4634C61.2297 40.4438 62.8394 39.1831 63.8807 37.3293C64.922 35.4754 65.087 33.5362 64.0237 31.5897C63.2857 30.2985 62.2615 29.1981 61.0317 28.375C58.2414 26.3914 55.099 25.242 51.821 24.4151C50.9704 24.2001 50.1124 24.0147 49.1847 23.7997C50.721 22.9246 52.1987 22.0867 53.669 21.2413C53.7257 21.2132 53.7875 21.1971 53.8505 21.1939C53.9135 21.1908 53.9765 21.2006 54.0357 21.2228C58.5494 22.3648 62.8907 23.9331 66.8214 26.51C68.5394 27.574 70.0343 28.9685 71.2214 30.6145C72.2276 31.9764 72.7204 33.6566 72.611 35.353C72.5857 35.7478 72.4939 36.1352 72.3397 36.4987C71.038 39.5539 68.849 41.8453 66.2164 43.7437C62.8247 46.1945 59.0334 47.8222 55.088 49.0792C50.7608 50.4394 46.3316 51.4425 41.844 52.0787C33.8219 53.242 25.7148 53.696 17.6147 53.4358C11.8678 53.3293 6.13776 52.7702 0.476705 51.7636C0.333705 51.7376 0.19437 51.6931 -0.0292969 51.6412" fill="#A60029"/>
    <path d="M41.8218 27.9791L46.1485 25.4727C48.1273 25.6869 50.0802 26.0992 51.9785 26.7036C54.3765 27.4266 56.6828 28.3721 58.6812 29.9516C59.0663 30.2584 59.4268 30.5957 59.7592 30.9601C61.5412 32.9067 61.6548 35.2203 60.0745 37.3412C59.0588 38.6213 57.7703 39.653 56.3052 40.3593C53.6882 41.6699 50.9025 42.6034 48.0295 43.1327C41.5102 44.4749 34.9175 44.753 28.2918 44.4601C24.2471 44.2953 20.2206 43.8206 16.2468 43.04C16.0782 43.0067 15.9095 42.9622 15.6602 42.9065L17.0352 42.1168C19.7925 40.5472 22.5474 38.9763 25.2998 37.4042C25.3996 37.3387 25.5116 37.2947 25.629 37.2749C25.7463 37.2551 25.8664 37.26 25.9818 37.2893C30.1403 38.2434 34.4031 38.6522 38.6648 38.5054C41.5886 38.5084 44.5043 38.1952 47.3622 37.5711C48.9425 37.2003 50.4605 36.6441 51.7182 35.5503C53.2728 34.2007 53.3168 32.4989 51.8428 31.0603C51.4158 30.6501 50.9346 30.302 50.4128 30.0258C49.1681 29.3709 47.8332 28.9084 46.4528 28.6539C45.0265 28.361 42.2582 28.0273 41.8255 27.9717" fill="#A60029"/>
    <path d="M41.2609 20.4698C41.2682 19.6831 41.5842 18.9316 42.1395 18.3805C42.4144 18.1076 42.7398 17.8922 43.0971 17.7465C43.4543 17.6008 43.8365 17.5277 44.2217 17.5314C44.6069 17.535 44.9876 17.6154 45.3422 17.7678C45.6967 17.9203 46.018 18.1418 46.2878 18.4198C46.5577 18.6978 46.7707 19.0269 46.9148 19.3882C47.0589 19.7494 47.1312 20.1359 47.1275 20.5254C47.1202 21.3121 46.8042 22.0636 46.2489 22.6147C45.6937 23.1657 44.9447 23.4712 44.1667 23.4638C43.3887 23.4564 42.6455 23.1368 42.1006 22.5754C41.5556 22.0139 41.2536 21.2565 41.2609 20.4698Z" fill="#A60029"/>
    <path d="M41.261 32.9922C41.2726 32.2081 41.5908 31.4605 42.146 30.913C42.7012 30.3655 43.4482 30.0625 44.2236 30.0705C44.6089 30.0763 44.9892 30.1588 45.3428 30.3133C45.6965 30.4677 46.0166 30.6911 46.2849 30.9707C46.5532 31.2503 46.7644 31.5806 46.9065 31.9427C47.0486 32.3048 47.1188 32.6916 47.113 33.0812C47.1072 33.4707 47.0256 33.8553 46.8729 34.2129C46.7201 34.5705 46.4992 34.8942 46.2227 35.1656C45.9462 35.4369 45.6196 35.6504 45.2615 35.7941C44.9034 35.9378 44.5209 36.0087 44.1356 36.0029C43.3615 35.9873 42.6249 35.6628 42.0863 35.1002C41.5478 34.5376 41.2511 33.7825 41.261 32.9996" fill="#130266"/>
    <path d="M87.4209 1.71624C81.5159 0.679174 75.5388 0.11754 69.5459 0.0366301C61.7472 -0.170091 53.9452 0.286331 46.2222 1.40108C41.7278 2.03592 37.2914 3.03656 32.9562 4.39325C29.0561 5.68547 25.3283 7.45879 21.8572 9.6731C21.8572 9.6731 17.8019 12.2685 15.9905 15.8836C15.6949 16.4931 15.4874 17.1424 15.3745 17.8116C15.274 18.5433 15.2988 19.2871 15.4479 20.0103C15.6859 21.1163 16.1643 22.1549 16.8486 23.0507C17.9486 24.5746 19.3456 25.8723 21.5456 27.2627C24.7246 29.276 28.1932 30.5997 31.7609 31.712H31.8086L32.3036 31.8677L32.6042 31.953L34.6832 32.5722L38.8045 29.6616L37.0629 29.2908C35.4107 28.9312 33.7868 28.4491 32.2045 27.8485C29.5682 26.8326 27.0455 25.5942 25.0765 23.4734C23.9142 22.2276 23.1295 20.7741 23.2212 18.9944C23.3459 16.6622 24.6072 14.9567 26.3122 13.5403C28.6332 11.6123 31.3722 10.5036 34.1956 9.60265C38.5956 8.20482 43.1166 7.5263 47.6926 7.15553C52.0746 6.80826 56.4749 6.76119 60.8632 7.01464C65.5231 7.27556 70.1565 7.89531 74.7232 8.86852C75.0062 8.93973 75.3056 8.89438 75.5555 8.74245C78.2053 7.25934 80.8612 5.78365 83.5232 4.31538L87.9856 1.8349C87.7252 1.77557 87.5639 1.73478 87.4062 1.70512" fill="#130266"/>
    <path d="M50.681 9.03447C46.5061 9.20559 42.3565 9.77542 38.2877 10.7363C35.622 11.3963 33.026 12.2491 30.6647 13.7025C29.363 14.4426 28.269 15.5055 27.4857 16.7911C26.9784 17.6002 26.7429 18.5533 26.8143 19.5085C26.8856 20.4638 27.26 21.3703 27.8817 22.0932C28.6453 23.0675 29.5956 23.8759 30.6757 24.4699C31.6987 25.0705 34.4377 26.5722 39.1677 27.5288C40.3043 27.7549 41.2393 27.8995 41.826 27.9663C42.1413 28.0293 46.325 25.4784 46.226 25.4673C44.3405 25.3063 42.4684 25.0127 40.6233 24.5885C39.0503 24.177 37.536 23.6282 36.293 22.5196C35.5413 21.8485 35.0133 21.0365 35.105 19.9798C35.1893 19.0232 35.7503 18.3409 36.4543 17.7551C37.4937 16.9547 38.6841 16.378 39.9523 16.0607C42.2759 15.4523 44.6593 15.1078 47.0583 15.0336C52.0817 14.763 57.072 14.9817 61.989 16.1645C62.1123 16.1988 62.2414 16.2063 62.3678 16.1865C62.4942 16.1666 62.6151 16.12 62.7223 16.0496L71.889 10.8253C72.01 10.7586 72.1677 10.7252 72.2557 10.5509C68.3872 9.75777 64.4649 9.26198 60.5223 9.06784C57.2445 8.88616 53.9596 8.87874 50.681 9.0456" fill="#130266"/>
    <path d="M0.117188 70.0658H4.78852C5.81104 70.0453 6.82419 70.2662 7.74752 70.7109C8.56931 71.113 9.2611 71.7431 9.74219 72.5277C10.2067 73.3612 10.4508 74.3017 10.4508 75.2585C10.4508 76.2152 10.2067 77.1558 9.74219 77.9892C9.2611 78.7738 8.56931 79.4039 7.74752 79.806C6.82419 80.2508 5.81104 80.4717 4.78852 80.4512H0.117188V70.0658ZM4.66385 78.4787C5.56441 78.5246 6.44714 78.2133 7.12418 77.611C7.7134 76.9726 8.0411 76.1318 8.0411 75.2585C8.0411 74.3852 7.7134 73.5444 7.12418 72.9059C6.44714 72.3037 5.56441 71.9924 4.66385 72.0383H2.49318V78.4787H4.66385Z" fill="#130266"/>
    <path d="M18.8538 78.2254H14.0872L13.1778 80.4501H10.7432L15.3192 70.0684H17.6695L22.2602 80.4501H19.7668L18.8538 78.2254ZM18.1205 76.4012L16.4888 72.4228L14.8608 76.4012H18.1205Z" fill="#130266"/>
    <path d="M32.7432 70.0645V80.4499H30.7925L25.6738 74.1467V80.4499H23.3271V70.0645H25.2925L30.3965 76.3713V70.0645H32.7432Z" fill="#130266"/>
    <path d="M37.5576 70.0645H35.1816V80.4499H37.5576V70.0645Z" fill="#130266"/>
    <path d="M47.9452 78.5219V80.4499H39.9922V70.0645H47.7545V71.9925H42.3535V74.2505H47.1202V76.1192H42.3535V78.5219H47.9452Z" fill="#130266"/>
    <path d="M49.8374 70.0645H52.2134V78.4922H57.3614V80.4499H49.8374V70.0645Z" fill="#130266"/>
    <path d="M62.5716 76.7718V80.4499H60.1956V76.7421L56.2173 70.0645H58.7436L61.4863 74.6806L64.2289 70.0645H66.5609L62.5716 76.7718Z" fill="#130266"/>
    <path d="M73.6927 78.2254H68.926L68.0167 80.4501H65.582L70.158 70.0684H72.5047L77.099 80.4501H74.602L73.6927 78.2254ZM72.9594 76.4012L71.3314 72.4228L69.6887 76.4012H72.9594Z" fill="#130266"/>
    <path d="M87.5857 70.0645V80.4499H85.635L80.5164 74.1467V80.4499H78.166V70.0645H80.1313L85.239 76.3713V70.0645H87.5857Z" fill="#130266"/>
    <path d="M88.0005 60.3027H0.000488281V60.8181H88.0005V60.3027Z" fill="#130266"/>
</svg>