<?xml version="1.0" encoding="UTF-8"?>
<svg width="105" height="40" viewBox="0 0 105 40" xmlns="http://www.w3.org/2000/svg">
    <g clip-path="url(#clip0_2022_139728)"><path d="M53.363 39.1783C37.1881 39.1783 21.0263 39.1783 4.85132 39.1913C3.45219 39.1913 2.30152 38.7637 1.62157 37.5198C1.36005 37.0533 1.21621 36.4572 1.20313 35.926C1.17699 28.8382 1.22929 21.7633 1.15083 14.6756C1.12468 12.6801 2.26228 11.3195 4.23675 10.879C9.79405 9.62212 15.3382 8.31339 20.8825 7.03059C28.5057 5.26836 36.129 3.49318 43.7523 1.73095C46.0405 1.19968 48.3158 0.603637 50.6302 0.227867C53.1146 -0.173817 55.6121 -0.0312844 58.0834 0.551806C65.8114 2.36587 73.5393 4.14105 81.2671 5.94215C87.7923 7.45819 94.3042 8.98718 100.829 10.5032C101.653 10.6976 102.489 10.866 103.3 11.0863C104.673 11.4362 105.627 12.6671 105.627 14.0795C105.627 21.3358 105.627 28.592 105.627 35.8482C105.627 37.7271 104.333 39.0747 102.437 39.1654C101.849 39.1913 101.26 39.1783 100.672 39.1783C84.9156 39.1783 69.1327 39.1783 53.363 39.1783ZM5.08669 35.1744C37.3189 35.1744 69.5118 35.1744 101.757 35.1744C101.757 28.3976 101.757 21.6597 101.757 14.9088C101.496 14.844 101.26 14.7663 101.025 14.7144C94.1858 13.1077 87.3474 11.5139 80.5087 9.90718C73.1208 8.17086 65.7329 6.47341 58.358 4.69823C55.4814 3.99852 52.6438 3.7005 49.7279 4.4002C43.9484 5.77371 38.1688 7.12129 32.3892 8.48188C23.9683 10.4514 15.5474 12.408 7.12654 14.3776C6.43351 14.5331 5.75357 14.7144 5.08669 14.8829C5.08669 21.6856 5.08669 28.4235 5.08669 35.1744Z" fill="#FFD500"></path><path d="M5.08594 35.1738C5.08594 28.41 5.08594 21.685 5.08594 14.8693C5.75281 14.7009 6.43276 14.5325 7.12578 14.364C15.5467 12.4074 23.9676 10.4508 32.3885 8.48127C38.1811 7.13365 43.9607 5.78607 49.7403 4.41257C52.6562 3.71286 55.4937 4.01088 58.3703 4.71059C65.7452 6.49873 73.1462 8.19621 80.521 9.91955C87.3599 11.5262 94.1982 13.12 101.037 14.7268C101.273 14.7787 101.495 14.8434 101.77 14.9212C101.77 21.672 101.77 28.41 101.77 35.1867C69.5241 35.1738 37.3181 35.1738 5.08594 35.1738ZM47.1904 9.53082C45.8044 9.8029 44.536 10.1009 43.2546 10.2693C42.5877 10.3601 42.4962 10.6452 42.4962 11.2153C42.5223 15.1285 42.4962 19.0287 42.5093 22.9418C42.5093 23.9137 42.5485 24.8855 42.6531 25.8444C42.8231 27.3604 43.3984 28.7209 44.4707 29.8223C46.0136 31.4291 47.988 31.9214 50.1325 31.6623C52.2508 31.4161 53.833 30.2759 54.8529 28.397C55.6375 26.9328 55.9252 25.352 55.9513 23.7323C55.9774 21.0112 55.9644 18.2901 55.9644 15.569C55.9644 15.3358 55.9644 15.1155 55.9644 14.8434C56.579 14.9082 57.0889 14.96 57.6643 15.0119C57.6643 13.5606 57.6643 12.1871 57.6643 10.8136C57.6643 9.28461 57.6643 9.25866 56.1867 8.98657C54.7876 8.72747 53.4015 8.35163 51.937 8.6238C51.3617 8.74037 51.2702 8.9607 51.2702 9.466C51.2832 14.0012 51.3093 18.5363 51.257 23.0585C51.244 23.7971 51.0217 24.6005 50.6686 25.2613C49.9887 26.5182 48.2757 26.4663 47.6219 25.1965C47.3735 24.6911 47.2166 24.0951 47.2166 23.5379C47.1773 19.1194 47.1904 14.6879 47.1904 10.2565C47.1904 10.0491 47.1904 9.82886 47.1904 9.53082ZM72.6493 31.6493C72.6623 31.4938 72.6885 31.3643 72.6885 31.2477C72.6885 27.0753 72.7016 22.916 72.6755 18.7436C72.6755 18.2124 72.5708 17.6681 72.4793 17.1498C71.8386 13.6772 69.0534 10.9821 64.9737 10.8006C63.1039 10.7229 61.6262 11.4226 60.711 13.1071C60.0441 14.3251 59.7826 15.6597 59.7695 17.0333C59.7565 21.6979 59.7565 26.3627 59.7695 31.0274C59.7695 31.2347 59.7956 31.442 59.8087 31.6493C61.3386 31.6493 62.8031 31.6493 64.333 31.6493C64.3461 31.4031 64.3722 31.1959 64.3722 30.9756C64.3722 27.0624 64.3591 23.1622 64.3722 19.2489C64.3722 18.7048 64.4115 18.1735 64.4899 17.6422C64.6076 16.7352 65.1045 16.1133 65.7452 16.0226C66.5689 15.9059 67.3666 16.3595 67.6935 17.2147C67.8765 17.6811 68.0073 18.2124 68.0073 18.7177C68.0466 22.7993 68.0335 26.8809 68.0466 30.9626C68.0466 31.1959 68.0466 31.4161 68.0466 31.6623C69.6288 31.6493 71.1194 31.6493 72.6493 31.6493ZM39.3579 31.6493C39.3579 26.6607 39.4365 21.7627 39.3187 16.8778C39.2664 15.1155 38.4034 13.5606 36.7036 12.6665C35.409 11.9798 34.023 12.0316 32.6369 12.2907C28.8841 12.9905 25.9943 15.9707 26.0336 19.9357C26.0728 23.6546 26.0467 27.3604 26.0467 31.0792C26.0467 31.2606 26.0728 31.455 26.0728 31.6493C27.6158 31.6493 29.1064 31.6493 30.6232 31.6493C30.6363 31.442 30.6494 31.2736 30.6494 31.1051C30.6494 27.6325 30.6363 24.1599 30.6494 20.6743C30.6494 19.7284 30.6756 18.7695 31.2509 17.9403C31.7609 17.2147 32.4931 16.9425 33.3561 17.0591C34.0753 17.1498 34.4284 17.6941 34.6114 18.316C34.7422 18.7436 34.7945 19.1972 34.7945 19.6507C34.8076 23.4342 34.8076 27.2049 34.8076 30.9885C34.8076 31.2218 34.8206 31.4421 34.8337 31.6623C36.4159 31.6493 37.9065 31.6493 39.3579 31.6493ZM83.7509 14.3381C83.7248 14.4935 83.7117 14.5843 83.7117 14.662C83.7117 18.4326 83.6464 22.2163 83.7378 25.9869C83.7901 28.086 84.6921 29.8483 86.6668 30.846C88.7199 31.8956 90.8905 31.9344 93.0742 31.3254C95.5844 30.6257 97.0619 28.993 97.1272 26.6996C97.2056 23.5768 97.1533 20.4411 97.1403 17.3183C97.1403 17.1628 96.9444 16.9166 96.8138 16.8778C95.4015 16.5797 93.9762 16.3076 92.4856 16.0226C92.4856 16.2947 92.4856 16.5279 92.4856 16.7611C92.4856 19.7413 92.4856 22.7216 92.4856 25.6889C92.4856 26.868 91.9231 27.5547 90.8905 27.7102C89.7133 27.8916 88.8113 27.3604 88.497 26.2331C88.3533 25.7148 88.3272 25.1706 88.3142 24.6393C88.3011 21.685 88.3142 18.7307 88.288 15.7764C88.288 15.556 88.1182 15.1933 87.9615 15.1544C86.5754 14.8564 85.2023 14.6102 83.7509 14.3381ZM13.5983 24.2894C13.6507 23.2917 13.6899 22.3977 13.7291 21.4907C13.7553 20.8298 14.056 20.2856 14.5791 19.8839C15.1544 19.4433 15.8213 19.3656 16.4881 19.5858C17.1027 19.7802 17.1942 20.3503 17.2727 20.8946C17.3381 21.361 17.3904 21.8405 17.3904 22.307C17.4035 25.1836 17.3904 28.0471 17.3904 30.9237C17.3904 31.1699 17.4165 31.4161 17.4165 31.6493C18.9333 31.6493 20.3587 31.6493 21.8362 31.6493C21.8362 30.3277 21.8362 29.0578 21.8362 27.788C21.8493 26.583 21.6793 26.6477 22.9346 26.6477C23.1045 26.6477 23.2615 26.6218 23.4969 26.5959C23.4969 25.2224 23.4969 23.8878 23.4969 22.5532C23.4969 22.4236 23.4707 22.307 23.4445 22.1644C22.9215 22.1644 22.4377 22.1644 21.8362 22.1644C21.8362 21.9182 21.8493 21.6591 21.8362 21.4129C21.7578 20.3893 21.7708 19.3397 21.5485 18.3419C21.1824 16.7352 20.084 15.6857 18.4234 15.4524C17.5212 15.3228 16.5535 15.4006 15.6382 15.5302C12.6831 15.9836 9.71482 17.7718 9.37482 21.3481C9.27025 22.4495 9.36176 23.5639 9.36176 24.6911C10.8001 24.5616 12.1731 24.432 13.5983 24.2894ZM74.4538 12.835C74.4538 19.1453 74.4538 25.4038 74.4538 31.6493C75.9052 31.6493 77.2782 31.6493 78.7296 31.6493C78.7296 29.3299 78.7296 27.0494 78.7296 24.743C79.4488 24.7948 80.1156 24.8467 80.8741 24.9114C80.8741 23.8489 80.8741 22.8253 80.8741 21.8016C80.8609 19.858 81.0964 20.3893 79.3049 20.0782C78.8211 20.0005 78.7035 19.8191 78.7165 19.3786C78.7427 17.6552 78.7296 15.9318 78.7165 14.1956C78.7165 14.0141 78.6903 13.8197 78.6773 13.6383C77.2258 13.3662 75.8398 13.0942 74.4538 12.835Z" fill="#00467F"></path><path d="M47.1903 9.53047C47.1903 9.82852 47.1903 10.0488 47.1903 10.2561C47.1903 14.6876 47.1903 19.1061 47.2165 23.5376C47.2165 24.0948 47.3734 24.7038 47.6218 25.1962C48.2625 26.466 49.9755 26.5308 50.6685 25.2609C51.0216 24.6131 51.2439 23.7968 51.2569 23.0581C51.3092 18.523 51.2831 13.9879 51.2701 9.46566C51.2701 8.96035 51.3616 8.74011 51.9369 8.62345C53.4014 8.33839 54.7874 8.72713 56.1865 8.98623C57.6642 9.25839 57.6642 9.28427 57.6642 10.8133C57.6642 12.1868 57.6642 13.5603 57.6642 15.0115C57.0758 14.9467 56.5657 14.9079 55.9643 14.843C55.9643 15.1152 55.9643 15.3484 55.9643 15.5687C55.9643 18.2898 55.9905 21.0109 55.9512 23.7319C55.9381 25.3646 55.6505 26.9454 54.8528 28.3967C53.8329 30.2755 52.2638 31.4158 50.1324 31.662C47.9879 31.9212 46.0135 31.4288 44.4705 29.822C43.4114 28.7206 42.823 27.3601 42.653 25.844C42.5483 24.8852 42.5092 23.9134 42.5092 22.9416C42.4961 19.0284 42.5092 15.1281 42.4961 11.215C42.4961 10.6319 42.5745 10.3598 43.2545 10.2691C44.5359 10.1006 45.7912 9.80256 47.1903 9.53047Z" fill="#FFD500"></path><path d="M72.6493 31.6496C71.1194 31.6496 69.6288 31.6496 68.0466 31.6496C68.0466 31.4163 68.0466 31.1831 68.0466 30.9499C68.0335 26.8683 68.0335 22.7866 68.0073 18.705C68.0073 18.1996 67.8765 17.6813 67.6935 17.2019C67.3535 16.3467 66.5559 15.8932 65.7452 16.0098C65.1045 16.1005 64.6076 16.7225 64.4899 17.6295C64.4245 18.1608 64.3722 18.705 64.3722 19.2363C64.3722 23.1494 64.3722 27.0497 64.3722 30.9629C64.3722 31.1701 64.3461 31.3775 64.333 31.6367C62.8162 31.6367 61.3386 31.6367 59.8087 31.6367C59.7956 31.4293 59.7695 31.222 59.7695 31.0147C59.7695 26.35 59.7564 21.6852 59.7695 17.0205C59.7695 15.647 60.044 14.3253 60.711 13.0944C61.6262 11.4099 63.0907 10.6972 64.9737 10.7879C69.0665 10.9693 71.8516 13.6645 72.4793 17.1371C72.5708 17.6683 72.6755 18.1996 72.6755 18.7309C72.6885 22.9032 72.6885 27.0626 72.6885 31.235C72.6885 31.3775 72.6623 31.4941 72.6493 31.6496Z" fill="#FFD500"></path><path d="M39.3579 31.6497C37.9065 31.6497 36.4159 31.6497 34.8337 31.6497C34.8206 31.4295 34.8076 31.2092 34.8076 30.9759C34.8076 27.1923 34.8076 23.4216 34.7945 19.6381C34.7945 19.1975 34.7291 18.731 34.6114 18.3034C34.4284 17.6815 34.0622 17.1502 33.3561 17.0465C32.4931 16.93 31.7739 17.2021 31.2509 17.9277C30.6756 18.757 30.6494 19.7159 30.6494 20.6617C30.6363 24.1344 30.6494 27.607 30.6494 31.0926C30.6494 31.261 30.6363 31.4295 30.6232 31.6367C29.1064 31.6367 27.6158 31.6367 26.0729 31.6367C26.0597 31.4295 26.0467 31.248 26.0467 31.0666C26.0467 27.3479 26.0729 23.642 26.0336 19.9231C25.9943 15.9581 28.8841 12.9649 32.6369 12.2781C34.023 12.019 35.409 11.9672 36.7036 12.654C38.4034 13.548 39.2664 15.103 39.3187 16.8652C39.4364 21.7761 39.3579 26.6741 39.3579 31.6497Z" fill="#FFD500"></path><path d="M83.7506 14.3379C85.189 14.6101 86.5751 14.8563 87.9482 15.1542C88.1049 15.1931 88.2747 15.5559 88.2747 15.7762C88.3008 18.7305 88.2878 21.6848 88.3008 24.6392C88.3008 25.1705 88.34 25.7276 88.4837 26.2329C88.7849 27.3603 89.6869 27.8915 90.8772 27.7101C91.9098 27.5546 92.4722 26.8549 92.4722 25.6887C92.4722 22.7085 92.4722 19.7283 92.4722 16.761C92.4722 16.5278 92.4722 16.2945 92.4722 16.0224C93.9629 16.3074 95.3882 16.5666 96.8004 16.8776C96.9441 16.9035 97.1269 17.1626 97.1269 17.3181C97.14 20.4409 97.1923 23.5767 97.1139 26.6994C97.0486 28.9929 95.571 30.6256 93.0608 31.3252C90.8771 31.9343 88.7065 31.8954 86.6535 30.8458C84.6788 29.8351 83.7767 28.0859 83.7245 25.9867C83.6331 22.2161 83.6984 18.4325 83.6984 14.6619C83.7114 14.5841 83.7376 14.4934 83.7506 14.3379Z" fill="#FFD500"></path><path d="M13.5984 24.2898C12.1731 24.4193 10.8001 24.549 9.3618 24.6915C9.3618 23.5642 9.27021 22.4498 9.37487 21.3484C9.72793 17.7722 12.683 15.971 15.6382 15.5305C16.5536 15.3879 17.5211 15.3232 18.4234 15.4527C20.084 15.686 21.1825 16.7355 21.5486 18.3423C21.7709 19.34 21.7577 20.3896 21.8363 21.4132C21.8624 21.6594 21.8363 21.9185 21.8363 22.1647C22.4377 22.1647 22.9216 22.1647 23.4446 22.1647C23.4576 22.2944 23.4968 22.4239 23.4968 22.5535C23.4968 23.8881 23.4968 25.2228 23.4968 26.5962C23.2615 26.6221 23.1046 26.6481 22.9346 26.6481C21.6793 26.6611 21.8493 26.5962 21.8363 27.7883C21.8231 29.0582 21.8363 30.328 21.8363 31.6497C20.3586 31.6497 18.9334 31.6497 17.4166 31.6497C17.4034 31.4294 17.3904 31.1703 17.3904 30.9241C17.3904 28.0475 17.3904 25.1838 17.3904 22.3073C17.3904 21.8408 17.3512 21.3614 17.2727 20.8949C17.1943 20.3637 17.1027 19.7936 16.4882 19.5862C15.8213 19.366 15.1544 19.4437 14.579 19.8842C14.056 20.2859 13.7553 20.8171 13.7292 21.4909C13.6899 22.398 13.6376 23.3051 13.5984 24.2898Z" fill="#FFD500"></path><path d="M74.4535 12.835C75.8526 13.1071 77.2256 13.3662 78.6639 13.6513C78.677 13.8327 78.7032 14.0141 78.7032 14.2085C78.7032 15.9319 78.7163 17.6552 78.7032 19.3915C78.7032 19.845 78.8078 20.0135 79.2916 20.0912C81.083 20.3892 80.8476 19.871 80.8607 21.8146C80.8738 22.8382 80.8607 23.8748 80.8607 24.9243C80.1023 24.8596 79.4485 24.8078 78.7163 24.7559C78.7163 27.0624 78.7163 29.3429 78.7163 31.6623C77.2779 31.6623 75.8919 31.6623 74.4404 31.6623C74.4535 25.3909 74.4535 19.1323 74.4535 12.835Z" fill="#FFD500"></path></g>
</svg>