<svg xmlns="http://www.w3.org/2000/svg" width="457.62" height="181.073" viewBox="0 0 457.62 181.073">
  <g id="logo-new" transform="translate(-677.219 -36.822)">
    <g id="Group_9823" data-name="Group 9823" transform="translate(819.771 36.822)">
      <circle id="Ellipse_9" data-name="Ellipse 9" cx="50.976" cy="50.976" r="50.976" transform="translate(21.151)" fill="#fff" opacity="0.28"/>
      <path id="Path_135" data-name="Path 135" d="M7516.128,0a50.966,50.966,0,0,1,14.8,2.185L7546.7,15.33l10.388,39.138-33.822-4.107-57.992,4.158c-.079-1.171-.124-2.352-.124-3.543A50.976,50.976,0,0,1,7516.128,0Z" transform="translate(-7444 0)" fill="#fff" fill-rule="evenodd" opacity="0.38"/>
      <path id="Path_136" data-name="Path 136" d="M12607.627,54.248l21.5-12.865a50.372,50.372,0,0,0-13.595-25.091,53.022,53.022,0,0,0-27.97-14.451,36.454,36.454,0,0,0-9.771-.5C12601.506,5.271,12618.715,31.94,12607.627,54.248Z" transform="translate(-12507.17 -1.182)" fill="#fff" fill-rule="evenodd"/>
      <path id="Path_137" data-name="Path 137" d="M9595.949,5390.134c.521,11.958,15.073,24.692,30.77,26.739a29.143,29.143,0,0,0,5.057-.07c16.008-.979,34.3-11.515,42.746-34.322,1.854-5,2.419-9.385,2.572-15.589-8.736,57.174-72.127,48.511-64.607,18.229Z" transform="translate(-9554.18 -5314.962)" fill="#fff" fill-rule="evenodd" opacity="0.66"/>
      <path id="Path_138" data-name="Path 138" d="M7946.846,5053.827c-28.051-9.085-38.358-34.262-24.768-53.558-13.885,1.316-22.336,11.47-20.893,22.79a25.987,25.987,0,0,0,1.054,2.718A50.977,50.977,0,0,0,7946.846,5053.827Z" transform="translate(-7875.657 -4951.887)" fill="#fff" fill-rule="evenodd"/>
      <path id="Path_139" data-name="Path 139" d="M7567.134,3007.791c-15.862,29.576-96.359-20.914-97.314,20.71a50.771,50.771,0,0,1-4.629-21.25,51.576,51.576,0,0,1,.457-6.836c19.157-19.878,95.325,23.618,96.47-15.255a50.75,50.75,0,0,1,5.024,22.091C7567.141,3007.432,7567.136,3007.612,7567.134,3007.791Z" transform="translate(-7444.038 -2956.277)" fill="#fff" fill-rule="evenodd"/>
      <path id="Path_140" data-name="Path 140" d="M9369.234,5670.181a129.4,129.4,0,0,1,36.049,4,325.1,325.1,0,0,1-38.162,11.244C9365.957,5680.6,9364.8,5675.085,9369.234,5670.181Z" transform="translate(-9326.517 -5615.23)" fill="#fff" fill-rule="evenodd" opacity="0.66"/>
      <path id="Path_141" data-name="Path 141" d="M13860.5,6189.086l5.073-2.417c2.438,1.109,13.924,2.016,21.388.769C13879.438,6190.158,13868.109,6191.286,13860.5,6189.086Z" transform="translate(-13777.471 -6126.809)" fill="#fff" fill-rule="evenodd" opacity="0.92"/>
      <path id="Path_142" data-name="Path 142" d="M7516.349,296.349c13.756-14.507,42.9-3.132,58.828-3.624,12.778-4.038,15.206-24.792-2.295-35.514C7546.6,245.733,7519.222,268.656,7516.349,296.349Z" transform="translate(-7494.701 -251.725)" fill="#fefefe" fill-rule="evenodd"/>
      <path id="Path_143" data-name="Path 143" d="M5423.825,2532.973l-1.962-3.708c57.4-4.31,23.042,17.966-24.347,35.49-56.1,20.747-128.016,35.543-69.951-1.909l.665,3.775C5269.847,2604.632,5474.114,2543.4,5423.825,2532.973Z" transform="translate(-5305.809 -2504.256)" fill-rule="evenodd"/>
      <path id="Path_144" data-name="Path 144" d="M5396.7,2456.55l-2.084-3.729c57.4-4.31,22.817,17.981-24.573,35.5-56.1,20.746-127.459,35.392-69.392-2.059l.666,3.744C5242.935,2528.021,5446.994,2466.979,5396.7,2456.55Z" transform="translate(-5279.063 -2428.551)" fill="#fff" fill-rule="evenodd"/>
    </g>
    <g id="Group_9033" data-name="Group 9033" transform="translate(919.307 117.652)">
      <path id="Path_145" data-name="Path 145" d="M15641.944,8368.292l-37.555-14.453-38.187,14.453,38.188,12.383Z" transform="translate(-15566.202 -8353.839)" fill="#fff" fill-rule="evenodd"/>
      <path id="Path_146" data-name="Path 146" d="M17211.355,10497.8v-10.641l-22.627,7.543-22.383-7.543v10.561c11.906.238,22.5,7.225,22.5,7.225C17201.2,10497.163,17211.355,10497.8,17211.355,10497.8Z" transform="translate(-17150.863 -10466.52)" fill="#fff" fill-rule="evenodd"/>
      <path id="Path_147" data-name="Path 147" d="M22035.945,10318.919v15.28h4.367v-15.28a1.925,1.925,0,0,0-.928-1.632,2.173,2.173,0,0,0-.314-3.744l.008-.023v-16.127l-1.9.605v15.442l.057.077a2.179,2.179,0,0,0-.359,3.77A1.914,1.914,0,0,0,22035.945,10318.919Z" transform="translate(-21973.344 -10278.586)" fill="#fff" fill-rule="evenodd"/>
    </g>
    <g id="Group_9824" data-name="Group 9824" transform="translate(815.058 160.365)">
      <path id="Path_148" data-name="Path 148" d="M6129.333,12376.3v8.1h9.951v3.54H6125.09v-20.957h4.243v5.767h12.088v3.546Zm19.889-.381v12.025h-4.245v-12.351q0-4.929,2.038-6.963t6.334-2.021q4.294,0,6.331,2.013t2.04,6.971v1.23h-4.245v-.92a11.837,11.837,0,0,0-.381-3.616,3.11,3.11,0,0,0-1.253-1.626,5.734,5.734,0,0,0-4.986,0,3.121,3.121,0,0,0-1.255,1.626A12.039,12.039,0,0,0,6149.222,12375.919Zm28.405,2.957h4.244v.656q0,4.784-2.044,6.782-2.049,2.017-6.328,2.012-4.3,0-6.331-2.023t-2.037-6.964v-12.352h4.24v5.767h13.053v3.546h-13.053v2.713a12.143,12.143,0,0,0,.383,3.648,3.029,3.029,0,0,0,1.253,1.622,4.62,4.62,0,0,0,2.492.561,4.67,4.67,0,0,0,2.479-.551,3.124,3.124,0,0,0,1.263-1.579,11.027,11.027,0,0,0,.386-3.492Zm12.754-2.949v3.443h13.085v3.543h-13.085v5.031h-4.242v-12.351q0-4.929,2.04-6.963t6.328-2.021c2.867,0,4.975.671,6.336,2.013s2.039,3.669,2.039,6.971v1.23h-4.246v-.92a11.876,11.876,0,0,0-.38-3.616,3.092,3.092,0,0,0-1.253-1.626,5.734,5.734,0,0,0-4.986,0,3.124,3.124,0,0,0-1.253,1.63A11.905,11.905,0,0,0,6190.381,12375.927Zm21.012-.008v12.025h-4.245v-12.351q0-4.929,2.039-6.963t6.331-2.021q4.3,0,6.333,2.013t2.04,6.971v12.351h-4.245v-12.025a11.893,11.893,0,0,0-.38-3.631,3.117,3.117,0,0,0-1.249-1.613,5.64,5.64,0,0,0-4.995,0,3.122,3.122,0,0,0-1.249,1.613A11.878,11.878,0,0,0,6211.393,12375.919Zm38.005,3.1a12.655,12.655,0,0,0,.37,3.577,2.946,2.946,0,0,0,1.253,1.7,5.976,5.976,0,0,0,4.978,0,2.913,2.913,0,0,0,1.252-1.7,12.581,12.581,0,0,0,.37-3.567v-.625h4.246v.936q0,4.95-2.034,6.971t-6.322,2.012q-4.291,0-6.322-2.023t-2.034-6.966v-8.81h-3.573v-3.54h7.817Zm20.278,2.176v6.745h-4.244v-20.957h4.244v6.313a7.866,7.866,0,0,1,1.882-.694,10.033,10.033,0,0,1,2.249-.231q4.289,0,6.328,2.021t2.04,6.961v1.235h-4.245v-.92a11.859,11.859,0,0,0-.381-3.617,3.1,3.1,0,0,0-1.254-1.626,4.576,4.576,0,0,0-2.492-.569,4.759,4.759,0,0,0-2.416.518,3.132,3.132,0,0,0-1.279,1.5A9.925,9.925,0,0,0,6269.677,12381.2Zm-37.127-4.9v11.645H6228.3v-20.957h4.245v5.767h9.043v3.546Z" transform="translate(-6124.683 -12366.204)" fill="#fff"/>
      <path id="Path_149" data-name="Path 149" d="M6094.87,12341.85v7.3h9.949v4.355h-15.007v-21.769h5.058v5.764h12.084v4.35Zm-.817,7.705v-8.514h12.09v-2.729h-12.09v-5.764h-3.432v20.143h13.385v-2.731h-9.953Zm20.7-8.487v12.438H6109.7v-12.761a15.37,15.37,0,0,1,.525-4.318,6.563,6.563,0,0,1,1.632-2.923,6.663,6.663,0,0,1,2.765-1.621,12.651,12.651,0,0,1,3.853-.532,12.81,12.81,0,0,1,3.851.527,6.806,6.806,0,0,1,2.764,1.609,6.663,6.663,0,0,1,1.636,2.926,15.656,15.656,0,0,1,.525,4.332v1.636H6122.2v-1.327c0-.843-.031-1.561-.091-2.146a5.866,5.866,0,0,0-.265-1.333h0a3.007,3.007,0,0,0-.439-.821,2.691,2.691,0,0,0-.656-.6,2.793,2.793,0,0,0-.931-.37,6.781,6.781,0,0,0-2.681,0,2.841,2.841,0,0,0-.932.37,2.741,2.741,0,0,0-.655.6,2.954,2.954,0,0,0-.437.821h0A11.656,11.656,0,0,0,6114.754,12341.067Zm-.811,11.623v-11.623a12.252,12.252,0,0,1,.405-3.765,3.643,3.643,0,0,1,.561-1.046,3.462,3.462,0,0,1,.853-.782v0a3.75,3.75,0,0,1,1.194-.482,7.522,7.522,0,0,1,3.041,0,3.721,3.721,0,0,1,1.189.482,3.427,3.427,0,0,1,.855.784,3.693,3.693,0,0,1,.562,1.046,6.465,6.465,0,0,1,.306,1.521,21.974,21.974,0,0,1,.1,2.229v.515h3.432v-.823a14.9,14.9,0,0,0-.491-4.111,5.865,5.865,0,0,0-1.426-2.569h0a5.919,5.919,0,0,0-2.438-1.409,13.6,13.6,0,0,0-7.216,0,5.937,5.937,0,0,0-2.438,1.413,5.871,5.871,0,0,0-1.425,2.585,14.646,14.646,0,0,0-.494,4.092v11.946Zm28.812-9.073h4.65v1.066a14.685,14.685,0,0,1-.53,4.2,6.591,6.591,0,0,1-1.638,2.871,6.747,6.747,0,0,1-2.768,1.605,14.322,14.322,0,0,1-7.694,0,6.812,6.812,0,0,1-2.764-1.623,6.631,6.631,0,0,1-1.635-2.923,15.584,15.584,0,0,1-.525-4.322v-12.754h5.056v5.764h13.055v4.35h-13.055v2.311a21.114,21.114,0,0,0,.091,2.159,6.2,6.2,0,0,0,.265,1.35h0a2.837,2.837,0,0,0,.439.833,2.4,2.4,0,0,0,.648.585l0,0a2.818,2.818,0,0,0,.931.369,6.065,6.065,0,0,0,1.342.129,5.959,5.959,0,0,0,1.331-.129,2.842,2.842,0,0,0,.936-.365,2.706,2.706,0,0,0,.651-.577h0a2.922,2.922,0,0,0,.442-.8,5.355,5.355,0,0,0,.268-1.291,19.185,19.185,0,0,0,.092-2.065v-.746Zm3.836.813h-3.432a19.219,19.219,0,0,1-.1,2.088v0a6.333,6.333,0,0,1-.313,1.481,3.787,3.787,0,0,1-.572,1.018h0a3.5,3.5,0,0,1-.855.764v0a3.85,3.85,0,0,1-1.187.462,6.844,6.844,0,0,1-1.5.151,6.968,6.968,0,0,1-1.519-.151,3.688,3.688,0,0,1-1.191-.477,3.277,3.277,0,0,1-.856-.78,3.665,3.665,0,0,1-.56-1.048,6.875,6.875,0,0,1-.309-1.545,22.086,22.086,0,0,1-.1-2.239v-3.119h13.053v-2.729h-13.053v-5.764h-3.431v11.942a14.8,14.8,0,0,0,.491,4.095,5.427,5.427,0,0,0,3.865,4,11.83,11.83,0,0,0,3.608.485,12.067,12.067,0,0,0,3.6-.477,5.992,5.992,0,0,0,2.443-1.414,5.764,5.764,0,0,0,1.429-2.527,13.858,13.858,0,0,0,.493-3.966Zm9.325-3.357v3.045H6169v4.353h-13.083v5.035h-5.056v-12.761a15.552,15.552,0,0,1,.525-4.318,6.251,6.251,0,0,1,4.4-4.544,12.668,12.668,0,0,1,3.853-.532,12.817,12.817,0,0,1,3.852.527,6.813,6.813,0,0,1,2.766,1.609,6.727,6.727,0,0,1,1.633,2.926,15.653,15.653,0,0,1,.526,4.332v1.636h-5.058v-1.327c0-.843-.029-1.561-.089-2.146a5.912,5.912,0,0,0-.266-1.333h0a2.939,2.939,0,0,0-.437-.821,2.684,2.684,0,0,0-.652-.6,2.825,2.825,0,0,0-.932-.37,6.773,6.773,0,0,0-2.679,0,2.873,2.873,0,0,0-.936.37,2.658,2.658,0,0,0-.652.605,2.924,2.924,0,0,0-.438.817l0,0a6,6,0,0,0-.264,1.333A21.511,21.511,0,0,0,6155.917,12341.072Zm-.814,3.449v-3.449a21.265,21.265,0,0,1,.1-2.244,6.739,6.739,0,0,1,.3-1.525,3.825,3.825,0,0,1,.565-1.046,3.425,3.425,0,0,1,.85-.782l0,0a3.735,3.735,0,0,1,1.193-.482,7.515,7.515,0,0,1,3.04,0,3.763,3.763,0,0,1,1.193.482,3.446,3.446,0,0,1,.854.784,3.639,3.639,0,0,1,.559,1.046,6.58,6.58,0,0,1,.308,1.521,21.988,21.988,0,0,1,.1,2.229v.515h3.433v-.823a14.961,14.961,0,0,0-.491-4.111,5.866,5.866,0,0,0-1.427-2.569h0a5.944,5.944,0,0,0-2.439-1.409,13.587,13.587,0,0,0-7.212,0,5.4,5.4,0,0,0-3.871,4,14.834,14.834,0,0,0-.487,4.092v11.946h3.429v-5.032h13.084v-2.729H6155.1Zm21.824-3.454v12.438h-5.056v-12.761a15.476,15.476,0,0,1,.526-4.318,6.252,6.252,0,0,1,4.4-4.544,12.658,12.658,0,0,1,3.853-.532,12.822,12.822,0,0,1,3.852.527,6.828,6.828,0,0,1,2.766,1.609,6.72,6.72,0,0,1,1.631,2.926,15.54,15.54,0,0,1,.527,4.332v12.761h-5.055v-12.437c0-.857-.032-1.575-.09-2.165a5.714,5.714,0,0,0-.266-1.328h0a3.053,3.053,0,0,0-.435-.809,2.75,2.75,0,0,0-.657-.6,2.9,2.9,0,0,0-.924-.382,6.062,6.062,0,0,0-1.349-.134,5.994,5.994,0,0,0-1.344.134,2.915,2.915,0,0,0-.929.382,2.729,2.729,0,0,0-.659.6,3.052,3.052,0,0,0-.435.809h0a5.781,5.781,0,0,0-.264,1.328,21.477,21.477,0,0,0-.092,2.165Zm-.814,11.623v-11.623a22.406,22.406,0,0,1,.1-2.244,6.61,6.61,0,0,1,.308-1.525,3.754,3.754,0,0,1,.558-1.028,3.543,3.543,0,0,1,.846-.784,3.7,3.7,0,0,1,1.2-.5,7.614,7.614,0,0,1,3.06,0,3.628,3.628,0,0,1,1.188.5,3.456,3.456,0,0,1,.848.784,3.656,3.656,0,0,1,.559,1.028,6.555,6.555,0,0,1,.309,1.525c.062.628.095,1.373.095,2.244v11.623h3.435v-11.946a14.855,14.855,0,0,0-.493-4.111,5.832,5.832,0,0,0-1.425-2.569h0a5.941,5.941,0,0,0-2.437-1.409,13.6,13.6,0,0,0-7.215,0,5.4,5.4,0,0,0-3.869,4,14.689,14.689,0,0,0-.492,4.092v11.946Zm38.816-8.523c0,.8.033,1.487.09,2.064a7.191,7.191,0,0,0,.264,1.4h0a2.911,2.911,0,0,0,.435.883,2.472,2.472,0,0,0,.643.6,2.779,2.779,0,0,0,.936.352,7.144,7.144,0,0,0,2.682,0,2.768,2.768,0,0,0,.934-.352h0a2.379,2.379,0,0,0,.64-.595,2.989,2.989,0,0,0,.437-.886h0a7.171,7.171,0,0,0,.26-1.389,20.032,20.032,0,0,0,.089-2.052v-1.036h5.054v1.34a15.487,15.487,0,0,1-.527,4.333,6.64,6.64,0,0,1-1.626,2.925h0a6.776,6.776,0,0,1-2.763,1.61,14.315,14.315,0,0,1-7.692,0,6.786,6.786,0,0,1-2.759-1.623,6.654,6.654,0,0,1-1.629-2.928,15.474,15.474,0,0,1-.526-4.32v-8.4h-3.569v-4.355h8.623Zm-.715,2.145a21.028,21.028,0,0,1-.093-2.145v-11.619h-7v2.728h3.57v9.212a14.739,14.739,0,0,0,.492,4.1,5.42,5.42,0,0,0,3.858,4,13.638,13.638,0,0,0,7.2,0,5.967,5.967,0,0,0,2.438-1.414,5.821,5.821,0,0,0,1.42-2.571,14.773,14.773,0,0,0,.491-4.109v-.537h-3.431v.233a20.008,20.008,0,0,1-.1,2.134,7.683,7.683,0,0,1-.293,1.551,3.741,3.741,0,0,1-.557,1.121,2.994,2.994,0,0,1-.874.8,3.716,3.716,0,0,1-1.185.461,7.933,7.933,0,0,1-3.025,0,3.738,3.738,0,0,1-1.189-.461,3.134,3.134,0,0,1-.871-.8,3.753,3.753,0,0,1-.558-1.117A8.287,8.287,0,0,1,6214.214,12346.312Zm21,.038v7.155h-5.055v-21.769h5.055v6.075c.125-.056.25-.1.378-.15a8.118,8.118,0,0,1,1.007-.3,8.9,8.9,0,0,1,1.108-.18c.394-.035.8-.062,1.232-.062a12.779,12.779,0,0,1,3.85.526,6.224,6.224,0,0,1,4.4,4.534,15.585,15.585,0,0,1,.528,4.335v1.631h-5.057v-1.324a20.452,20.452,0,0,0-.093-2.146,5.814,5.814,0,0,0-.261-1.332h0a3.022,3.022,0,0,0-.439-.825,2.688,2.688,0,0,0-.652-.6,2.991,2.991,0,0,0-.933-.372,5.946,5.946,0,0,0-1.342-.127,6.454,6.454,0,0,0-1.29.114,3.272,3.272,0,0,0-.915.343,2.608,2.608,0,0,0-.655.558,2.784,2.784,0,0,0-.458.751,5.119,5.119,0,0,0-.284,1.212,17.107,17.107,0,0,0-.12,1.953Zm-.812,6.341v-6.341l0,0a17.9,17.9,0,0,1,.127-2.045,5.7,5.7,0,0,1,.337-1.426l0,0a3.7,3.7,0,0,1,.587-.967,3.627,3.627,0,0,1,.852-.723h0a4.044,4.044,0,0,1,1.162-.437,6.706,6.706,0,0,1,1.459-.141,6.989,6.989,0,0,1,1.524.151,3.628,3.628,0,0,1,1.19.483,3.471,3.471,0,0,1,.855.784,3.847,3.847,0,0,1,.562,1.043,6.758,6.758,0,0,1,.3,1.525,21.9,21.9,0,0,1,.1,2.229v.518h3.431v-.824a14.807,14.807,0,0,0-.491-4.109,5.825,5.825,0,0,0-1.426-2.57h0a5.878,5.878,0,0,0-2.439-1.414,11.805,11.805,0,0,0-3.6-.488q-.628,0-1.154.051a8.161,8.161,0,0,0-1,.169h0a8.132,8.132,0,0,0-.911.27c-.3.117-.589.245-.875.392l-.594.311v-6.574h-3.431v20.143Zm-36.316-10.841v11.655h-5.055v-21.769h5.055v5.764h9.045v4.35Zm-.81,10.841v-11.649h9.043v-2.729h-9.043v-5.764h-3.433v20.143Z" transform="translate(-6089.812 -12331.35)" fill="#fff"/>
    </g>
    <path id="Path_150" data-name="Path 150" d="M3.563,15319.8v3.912H14.545v4.019H3.563v5.722H0v-14.028q0-5.593,1.712-7.9a6.176,6.176,0,0,1,5.315-2.29,6.184,6.184,0,0,1,5.315,2.286q1.714,2.275,1.711,7.9v1.4H10.491v-1.043a18.071,18.071,0,0,0-.319-4.11,3.555,3.555,0,0,0-1.053-1.839,3.059,3.059,0,0,0-2.092-.649,3.066,3.066,0,0,0-2.093.649,3.648,3.648,0,0,0-1.052,1.843,18.138,18.138,0,0,0-.319,4.123Zm30.561.427H31.15v4.813c0,3.03-.577,5.265-1.736,6.687a6.389,6.389,0,0,1-5.291,2.155,6.337,6.337,0,0,1-5.274-2.263q-1.8-2.265-1.8-6.569,0-4.406,1.794-6.627a6.421,6.421,0,0,1,5.291-2.221h3.456v-6.537H31.15v6.537h2.973v4.024Zm-10.025,0a3,3,0,0,0-2.645,1.146,8.736,8.736,0,0,0,.041,7.368,3,3,0,0,0,2.616,1.183,3.043,3.043,0,0,0,2.654-1.148,6.579,6.579,0,0,0,.823-3.735v-4.813Zm16.552-5.874a4.14,4.14,0,0,0-1.237-.423,8.739,8.739,0,0,0-1.646-.15H36.474v-4.114h2.26a8.741,8.741,0,0,1,2.072.214,5.784,5.784,0,0,1,1.605.629l6.667,4.072v4.878l-3.841-2.317a3.344,3.344,0,0,0-.729-.191,3.206,3.206,0,0,0-.717-.074,3.845,3.845,0,0,0-3.28,1.9,9.383,9.383,0,0,0-1.286,5.333,8.292,8.292,0,0,0,.889,4.324,2.99,2.99,0,0,0,2.715,1.436,3.046,3.046,0,0,0,2.695-1.3,7.42,7.42,0,0,0,.876-4.078c0-.194,0-.342-.012-.45l3.55-1.118c.049.55.074,1.131.074,1.735a10.591,10.591,0,0,1-1.912,6.743,6.315,6.315,0,0,1-5.262,2.413,6.323,6.323,0,0,1-5.36-2.523,11.45,11.45,0,0,1-1.912-7.048,12.872,12.872,0,0,1,1.536-6.581,5.691,5.691,0,0,1,3.968-3.038Zm22.973,3.424v-1.574h3.563v17.25H63.624v-6.744a3.967,3.967,0,0,1-1.523.8,7.181,7.181,0,0,1-1.945.258,6.2,6.2,0,0,1-5.311-2.291q-1.714-2.3-1.711-7.892v-7.921H56.7v7.56a18.255,18.255,0,0,0,.319,4.12,3.532,3.532,0,0,0,1.052,1.84,3.144,3.144,0,0,0,2.093.633,3.184,3.184,0,0,0,2.052-.6,3.392,3.392,0,0,0,1.077-1.744A14.485,14.485,0,0,0,63.624,15317.774Zm21.937,16.413a13.214,13.214,0,0,1-1.589-1.126,12.107,12.107,0,0,1-1.159-1.085,5.443,5.443,0,0,1-2.052,1.4,7.786,7.786,0,0,1-2.973.5,6.249,6.249,0,0,1-5.4-2.37q-1.738-2.358-1.74-7.834v-14.013h3.563V15323a19.47,19.47,0,0,0,.336,4.4,3.507,3.507,0,0,0,1.11,1.894,3.255,3.255,0,0,0,2.125.63,5.983,5.983,0,0,0,1.4-.143,3.241,3.241,0,0,0,1.028-.4,8.737,8.737,0,0,0-.913-.568,11.913,11.913,0,0,0-1.151-.565l1.044-4.07a9.756,9.756,0,0,1,1.319.841,11.676,11.676,0,0,1,1.057.906c-.016-.451-.053-.925-.115-1.42a12.187,12.187,0,0,1-.09-1.51v-13.334h3.563v14.013c0,.961-.041,1.878-.119,2.746a14.58,14.58,0,0,1-.422,2.417,10.2,10.2,0,0,0,1.032.763,9.658,9.658,0,0,0,1.286.691Zm13.575-16.413v-1.574H102.7v17.25H99.136v-6.744a3.966,3.966,0,0,1-1.523.8,7.18,7.18,0,0,1-1.945.258,6.2,6.2,0,0,1-5.311-2.291q-1.713-2.3-1.711-7.892v-7.921h3.563v7.56a18.254,18.254,0,0,0,.319,4.12,3.529,3.529,0,0,0,1.052,1.84,3.144,3.144,0,0,0,2.092.633,3.184,3.184,0,0,0,2.052-.6,3.392,3.392,0,0,0,1.077-1.744A14.484,14.484,0,0,0,99.136,15317.774Zm21.937,16.413a13.229,13.229,0,0,1-1.589-1.126,12.083,12.083,0,0,1-1.159-1.085,5.446,5.446,0,0,1-2.052,1.4,7.785,7.785,0,0,1-2.973.5,6.249,6.249,0,0,1-5.4-2.37q-1.738-2.358-1.74-7.834v-14.013h3.563V15323a19.482,19.482,0,0,0,.336,4.4,3.507,3.507,0,0,0,1.11,1.894,3.256,3.256,0,0,0,2.125.63,5.982,5.982,0,0,0,1.4-.143,3.24,3.24,0,0,0,1.028-.4,8.738,8.738,0,0,0-.913-.568,11.94,11.94,0,0,0-1.151-.565l1.044-4.07a9.776,9.776,0,0,1,1.319.841,11.677,11.677,0,0,1,1.056.906c-.016-.451-.053-.925-.115-1.42a12.185,12.185,0,0,1-.09-1.51v-13.334h3.562v14.013c0,.961-.041,1.878-.119,2.746a14.6,14.6,0,0,1-.422,2.417,10.2,10.2,0,0,0,1.032.763,9.66,9.66,0,0,0,1.286.691Zm7.973-10.877a19.064,19.064,0,0,0,.311,4.064,3.465,3.465,0,0,0,1.052,1.934,3.863,3.863,0,0,0,4.177,0,3.375,3.375,0,0,0,1.052-1.934,18.877,18.877,0,0,0,.311-4.047v-.713h3.563v1.07c0,3.739-.569,6.382-1.708,7.907a7.282,7.282,0,0,1-10.614-.018c-1.138-1.528-1.708-4.168-1.708-7.9v-10h-3v-4.013h6.56v13.647Zm35.074,10.877a13.23,13.23,0,0,1-1.589-1.126,12.106,12.106,0,0,1-1.159-1.085,5.445,5.445,0,0,1-2.052,1.4,7.786,7.786,0,0,1-2.973.5,6.249,6.249,0,0,1-5.4-2.37q-1.738-2.358-1.74-7.834v-14.013h3.563V15323a19.47,19.47,0,0,0,.336,4.4,3.508,3.508,0,0,0,1.11,1.894,3.256,3.256,0,0,0,2.125.63,5.981,5.981,0,0,0,1.4-.143,3.243,3.243,0,0,0,1.028-.4,8.756,8.756,0,0,0-.913-.568,11.921,11.921,0,0,0-1.151-.565l1.044-4.07a9.779,9.779,0,0,1,1.319.841,11.671,11.671,0,0,1,1.057.906c-.016-.451-.053-.925-.115-1.42a12.159,12.159,0,0,1-.09-1.51v-13.334h3.563v14.013c0,.961-.041,1.878-.119,2.746a14.578,14.578,0,0,1-.422,2.417,10.212,10.212,0,0,0,1.032.763,9.635,9.635,0,0,0,1.286.691Zm13.575-16.413v-1.574h3.563v17.25h-3.563v-6.744a3.967,3.967,0,0,1-1.523.8,7.18,7.18,0,0,1-1.945.258,6.2,6.2,0,0,1-5.311-2.291q-1.714-2.3-1.712-7.892v-7.921h3.563v7.56a18.253,18.253,0,0,0,.319,4.12,3.531,3.531,0,0,0,1.052,1.84,3.144,3.144,0,0,0,2.093.633,3.184,3.184,0,0,0,2.052-.6,3.392,3.392,0,0,0,1.077-1.744,14.485,14.485,0,0,0,.336-3.7Zm21.937,16.413a13.234,13.234,0,0,1-1.589-1.126,12.127,12.127,0,0,1-1.159-1.085,5.443,5.443,0,0,1-2.052,1.4,7.786,7.786,0,0,1-2.973.5,6.249,6.249,0,0,1-5.4-2.37q-1.738-2.358-1.74-7.834v-14.013h3.563V15323a19.468,19.468,0,0,0,.336,4.4,3.507,3.507,0,0,0,1.11,1.894,3.255,3.255,0,0,0,2.125.63,5.983,5.983,0,0,0,1.4-.143,3.243,3.243,0,0,0,1.028-.4,8.756,8.756,0,0,0-.913-.568,11.921,11.921,0,0,0-1.151-.565l1.044-4.07a9.777,9.777,0,0,1,1.319.841,11.678,11.678,0,0,1,1.057.906c-.016-.451-.053-.925-.115-1.42a12.153,12.153,0,0,1-.09-1.51v-13.334H199v14.013c0,.961-.041,1.878-.119,2.746a14.572,14.572,0,0,1-.422,2.417,10.223,10.223,0,0,0,1.032.763,9.637,9.637,0,0,0,1.286.691Zm12.985-14.4a19.082,19.082,0,0,0-.311-4.052,3.442,3.442,0,0,0-1.056-1.934,3.88,3.88,0,0,0-4.193,0,3.43,3.43,0,0,0-1.057,1.934,18.946,18.946,0,0,0-.311,4.05v.709h-3.563v-1.068q0-5.6,1.712-7.9a7.314,7.314,0,0,1,10.631,0c1.143,1.53,1.712,4.179,1.712,7.913v4.271h2.973v4.019h-2.973v5.722h-3.563Zm18.829,3.365h3.563v.739c0,3.621-.573,6.186-1.716,7.71a7.3,7.3,0,0,1-10.627-.022c-1.142-1.528-1.712-4.168-1.712-7.9v-14.013h3.563v6.537h10.958v4.024H224.517v3.08a18.373,18.373,0,0,0,.319,4.136,3.486,3.486,0,0,0,1.052,1.848,3.761,3.761,0,0,0,4.173,0,3.48,3.48,0,0,0,1.061-1.787,16.692,16.692,0,0,0,.323-3.963Zm17.637-13.485h6.56v4.013h-3v10c0,3.731-.569,6.371-1.712,7.9a7.282,7.282,0,0,1-10.631,0c-1.142-1.528-1.712-4.168-1.712-7.9v-14.013h3.563v13.647a19.081,19.081,0,0,0,.311,4.064,3.492,3.492,0,0,0,1.057,1.934,3.891,3.891,0,0,0,4.193,0,3.493,3.493,0,0,0,1.056-1.934,19.07,19.07,0,0,0,.311-4.064v-13.647Zm12.031,16.122v7.665h-3.563v-23.787h3.563v7.16a5.624,5.624,0,0,1,1.581-.789,7.276,7.276,0,0,1,7.2,2.025c1.143,1.524,1.712,4.166,1.712,7.907v1.395h-3.563v-1.037a18,18,0,0,0-.319-4.108,3.522,3.522,0,0,0-1.052-1.839,3,3,0,0,0-2.093-.644,3.137,3.137,0,0,0-2.027.593,3.367,3.367,0,0,0-1.073,1.688A15.011,15.011,0,0,0,261.114,15325.785Zm28.26,8.4a13.223,13.223,0,0,1-1.589-1.126,12.081,12.081,0,0,1-1.159-1.085,5.446,5.446,0,0,1-2.052,1.4,7.785,7.785,0,0,1-2.973.5,6.249,6.249,0,0,1-5.4-2.37q-1.738-2.358-1.74-7.834v-14.013h3.563V15323a19.475,19.475,0,0,0,.336,4.4,3.507,3.507,0,0,0,1.11,1.894,3.256,3.256,0,0,0,2.125.63,5.982,5.982,0,0,0,1.4-.143,3.238,3.238,0,0,0,1.028-.4,8.737,8.737,0,0,0-.913-.568,11.913,11.913,0,0,0-1.151-.565l1.044-4.07a9.77,9.77,0,0,1,1.319.841,11.666,11.666,0,0,1,1.056.906c-.016-.451-.053-.925-.115-1.42a12.174,12.174,0,0,1-.09-1.51v-13.334h3.562v14.013c0,.961-.041,1.878-.119,2.746a14.574,14.574,0,0,1-.422,2.417,10.2,10.2,0,0,0,1.032.763,9.665,9.665,0,0,0,1.286.691l-1.142,3.895Zm22.49-.737H308.3v-6.758a3.894,3.894,0,0,0-.876-2.854,3.758,3.758,0,0,0-2.7-.853h-6.4v-4.024h6.4a3.01,3.01,0,0,0,2.178-.728,2.575,2.575,0,0,0,.762-1.976,2.635,2.635,0,0,0-.639-2.007,3.506,3.506,0,0,0-2.306-.575H299.43v-4.013h5.287a6.8,6.8,0,0,1,4.82,1.618,5.705,5.705,0,0,1,1.736,4.38,6.858,6.858,0,0,1-.631,3.08,4.543,4.543,0,0,1-1.83,1.967,3.881,3.881,0,0,1,2.269,1.985,8.452,8.452,0,0,1,.782,3.877Zm7.15-7.665v7.665H315.45v-23.787h3.563v7.16a5.624,5.624,0,0,1,1.581-.789,7.276,7.276,0,0,1,7.2,2.025c1.143,1.524,1.712,4.166,1.712,7.907v1.395h-3.563v-1.037a18,18,0,0,0-.319-4.108,3.523,3.523,0,0,0-1.052-1.839,3,3,0,0,0-2.093-.644,3.137,3.137,0,0,0-2.027.593,3.366,3.366,0,0,0-1.073,1.688A15,15,0,0,0,319.013,15325.785Zm23.841-16.122h6.56v4.013h-3v10c0,3.731-.569,6.371-1.712,7.9a7.282,7.282,0,0,1-10.631,0c-1.142-1.528-1.712-4.168-1.712-7.9v-14.013h3.563v13.647a19.085,19.085,0,0,0,.311,4.064,3.493,3.493,0,0,0,1.057,1.934,3.891,3.891,0,0,0,4.193,0,3.493,3.493,0,0,0,1.056-1.934,19.063,19.063,0,0,0,.311-4.064v-13.647Zm13.112,13.647a19.061,19.061,0,0,0,.311,4.064,3.466,3.466,0,0,0,1.052,1.934,3.863,3.863,0,0,0,4.177,0,3.374,3.374,0,0,0,1.052-1.934,18.874,18.874,0,0,0,.311-4.047v-.713h3.563v1.07c0,3.739-.569,6.382-1.708,7.907a7.282,7.282,0,0,1-10.614-.018c-1.139-1.528-1.708-4.168-1.708-7.9v-10h-3v-4.013h6.56v13.647Zm28.248,10.877a13.24,13.24,0,0,1-1.589-1.126,12.087,12.087,0,0,1-1.159-1.085,5.444,5.444,0,0,1-2.052,1.4,7.786,7.786,0,0,1-2.973.5,6.249,6.249,0,0,1-5.4-2.37q-1.738-2.358-1.74-7.834v-14.013h3.563V15323a19.478,19.478,0,0,0,.336,4.4,3.508,3.508,0,0,0,1.11,1.894,3.256,3.256,0,0,0,2.125.63,5.983,5.983,0,0,0,1.4-.143,3.242,3.242,0,0,0,1.028-.4,8.756,8.756,0,0,0-.913-.568,11.889,11.889,0,0,0-1.151-.565l1.044-4.07a9.77,9.77,0,0,1,1.319.841,11.663,11.663,0,0,1,1.057.906c-.016-.451-.053-.925-.115-1.42a12.167,12.167,0,0,1-.09-1.51v-13.334h3.563v14.013c0,.961-.041,1.878-.119,2.746a14.583,14.583,0,0,1-.422,2.417,10.207,10.207,0,0,0,1.032.763,9.629,9.629,0,0,0,1.286.691l-1.142,3.895Zm12.985-14.4a19.081,19.081,0,0,0-.311-4.052,3.444,3.444,0,0,0-1.056-1.934,3.88,3.88,0,0,0-4.193,0,3.429,3.429,0,0,0-1.057,1.934,18.932,18.932,0,0,0-.311,4.05v.709h-3.563v-1.068q0-5.6,1.712-7.9a7.313,7.313,0,0,1,10.631,0c1.143,1.53,1.712,4.179,1.712,7.913v4.271h2.973v4.019h-2.973v5.722H397.2v-13.667Zm11.9,0v13.667h-3.563v-14.028q0-5.593,1.712-7.9a7.318,7.318,0,0,1,10.631,0q1.714,2.275,1.712,7.9v1.4h-3.563v-1.043a18.081,18.081,0,0,0-.319-4.11,3.555,3.555,0,0,0-1.052-1.839,3.7,3.7,0,0,0-4.185,0,3.621,3.621,0,0,0-1.052,1.839A18.139,18.139,0,0,0,409.1,15319.783Zm28.264,14.4a13.242,13.242,0,0,1-1.589-1.126,12.069,12.069,0,0,1-1.159-1.085,5.446,5.446,0,0,1-2.052,1.4,7.787,7.787,0,0,1-2.973.5,6.25,6.25,0,0,1-5.4-2.37q-1.738-2.358-1.74-7.834v-14.013h3.562V15323a19.469,19.469,0,0,0,.336,4.4,3.5,3.5,0,0,0,1.11,1.894,3.256,3.256,0,0,0,2.125.63,5.98,5.98,0,0,0,1.4-.143,3.242,3.242,0,0,0,1.028-.4,8.746,8.746,0,0,0-.913-.568,11.9,11.9,0,0,0-1.151-.565l1.044-4.07a9.767,9.767,0,0,1,1.318.841,11.648,11.648,0,0,1,1.057.906c-.016-.451-.053-.925-.115-1.42a12.174,12.174,0,0,1-.09-1.51v-13.334h3.563v14.013c0,.961-.041,1.878-.119,2.746a14.564,14.564,0,0,1-.422,2.417,10.175,10.175,0,0,0,1.032.763,9.636,9.636,0,0,0,1.286.691Zm13.7-24.524h6.56v4.013h-3v10c0,3.731-.569,6.371-1.712,7.9a7.282,7.282,0,0,1-10.631,0c-1.142-1.528-1.712-4.168-1.712-7.9v-14.013h3.563v13.647a19.064,19.064,0,0,0,.311,4.064,3.492,3.492,0,0,0,1.056,1.934,3.891,3.891,0,0,0,4.193,0,3.494,3.494,0,0,0,1.056-1.934,19.08,19.08,0,0,0,.311-4.064v-13.647Z" transform="translate(677.219 -15116.293)" fill="#fff"/>
  </g>
</svg>
