<svg xmlns="http://www.w3.org/2000/svg" width="211.999" height="47.292" viewBox="0 0 211.999 47.292"><g id="logo_header" transform="translate(-5947.282 1416.091)"><path id="Path_64" d="M14.451-33.175v.7H12.695v-.7a.342.342,0,0,0-.106-.251.345.345,0,0,0-.252-.105H4.858a.345.345,0,0,0-.252.105.342.342,0,0,0-.106.251v7.45a.342.342,0,0,0,.106.251.345.345,0,0,0,.252.105h7.479a.345.345,0,0,0,.252-.105.342.342,0,0,0,.106-.251v-2.526H9.931V-30h4.52v4.275a2.025,2.025,0,0,1-.618,1.49,2.042,2.042,0,0,1-1.5.615H4.858a2.042,2.042,0,0,1-1.5-.615,2.025,2.025,0,0,1-.618-1.49v-7.45a2.025,2.025,0,0,1,.618-1.49,2.042,2.042,0,0,1,1.5-.615h7.479a2.042,2.042,0,0,1,1.5.615A2.025,2.025,0,0,1,14.451-33.175Zm20.373.016v3.271a2.033,2.033,0,0,1-.618,1.482,2.028,2.028,0,0,1-1.5.623H31.523l3.3,3.919v.243H32.742L29.23-27.782h-4a2.7,2.7,0,0,1-.358-.032v4.194H23.117V-35.264H32.71a2.028,2.028,0,0,1,1.5.623A2.033,2.033,0,0,1,34.824-33.158Zm-9.593,3.628H32.71a.345.345,0,0,0,.252-.105.342.342,0,0,0,.106-.251v-3.271a.342.342,0,0,0-.106-.251.345.345,0,0,0-.252-.105H25.231a.345.345,0,0,0-.252.105.342.342,0,0,0-.106.251v3.271a.342.342,0,0,0,.106.251A.345.345,0,0,0,25.231-29.531ZM45.522-35.28H53a2.041,2.041,0,0,1,1.5.615,2.025,2.025,0,0,1,.618,1.49v7.45a2.025,2.025,0,0,1-.618,1.49,2.042,2.042,0,0,1-1.5.615H45.522a2.042,2.042,0,0,1-1.5-.615,2.025,2.025,0,0,1-.618-1.49v-7.45a2.025,2.025,0,0,1,.618-1.49A2.042,2.042,0,0,1,45.522-35.28Zm0,9.911H53a.345.345,0,0,0,.252-.105.342.342,0,0,0,.106-.251v-7.45a.342.342,0,0,0-.106-.251A.345.345,0,0,0,53-33.531H45.522a.345.345,0,0,0-.252.105.342.342,0,0,0-.106.251v7.45a.342.342,0,0,0,.106.251A.345.345,0,0,0,45.522-25.369Zm28.194-.356V-35.28h1.756v9.555a2.025,2.025,0,0,1-.618,1.49,2.041,2.041,0,0,1-1.5.615H65.879a2.042,2.042,0,0,1-1.5-.615,2.025,2.025,0,0,1-.618-1.49V-35.28h1.756v9.555a.342.342,0,0,0,.106.251.345.345,0,0,0,.252.105h7.479a.345.345,0,0,0,.252-.105A.342.342,0,0,0,73.716-25.725Zm10.438-9.539h9.593a2.028,2.028,0,0,1,1.5.623,2.033,2.033,0,0,1,.618,1.482v3.271a2.033,2.033,0,0,1-.618,1.482,2.028,2.028,0,0,1-1.5.623H86.268a2.7,2.7,0,0,1-.358-.032v4.194H84.154ZM94.1-29.887v-3.271A.342.342,0,0,0,94-33.41a.345.345,0,0,0-.252-.105H86.268a.345.345,0,0,0-.252.105.342.342,0,0,0-.106.251v3.271a.342.342,0,0,0,.106.251.345.345,0,0,0,.252.105h7.479A.345.345,0,0,0,94-29.636.342.342,0,0,0,94.1-29.887Z" transform="translate(6062.819 -1345.179)" fill="red"></path> <path id="Path_65" d="M-211.806-44.782h-16.307V-66.5H-212.3v2.583h-12.909v6.637h12.089v2.554h-12.089v7.364h13.4Zm21.822,0h-3.577l-6.469-9.19-6.529,9.19h-3.458l8.467-11.313L-209-66.5h3.413l5.709,8.24,6.141-8.24h3.175l-7.692,10.259Zm18.23-19.138H-179v19.138h-2.892V-63.919H-189.1V-66.5h17.351Zm19.333,19.138h-16.307V-66.5h15.815v2.583h-12.909v6.637h12.089v2.554h-12.089v7.364h13.4Zm23.283,0h-3.622l-2.877-4.513q-.6-.935-.924-1.41-.477-.713-1.014-1.4a6.285,6.285,0,0,0-.865-.958,9.586,9.586,0,0,0-1.222-.95,5.743,5.743,0,0,0-2.474-.416h-3.354v9.65H-148.4V-66.5h9.7a15.808,15.808,0,0,1,3.764.356,4.647,4.647,0,0,1,2.243,1.232,6.355,6.355,0,0,1,1.431,2.227,6.175,6.175,0,0,1,.343,2.108,6.155,6.155,0,0,1-.328,2.049,4.908,4.908,0,0,1-1.7,2.331,8.443,8.443,0,0,1-4.129,1.529,7.617,7.617,0,0,1,2.43,1.737,15.478,15.478,0,0,1,1.714,2.227Zm-4.755-15.8a3.062,3.062,0,0,0-1.282-2.672,5.818,5.818,0,0,0-3.4-.846h-6.916v7.186h6.186a11.46,11.46,0,0,0,2.527-.223,3.794,3.794,0,0,0,1.647-.831,3.914,3.914,0,0,0,.932-1.151A3.2,3.2,0,0,0-133.892-60.579Zm10.9,15.8h-2.892V-66.5H-123Zm25.251-10.823a12.717,12.717,0,0,1-1.342,5.894,9.127,9.127,0,0,1-3.809,3.957,10.878,10.878,0,0,1-5.284,1.344,10.5,10.5,0,0,1-5.508-1.47,9.423,9.423,0,0,1-3.7-4.046,12.29,12.29,0,0,1-1.252-5.441q0-5.4,2.929-8.463a9.972,9.972,0,0,1,7.535-3.058,11.283,11.283,0,0,1,2.877.356,9.919,9.919,0,0,1,2.594,1.1,9.372,9.372,0,0,1,3.7,4.016A13,13,0,0,1-97.745-55.605Zm-2.981,0a11.033,11.033,0,0,0-.909-4.64,6.909,6.909,0,0,0-2.646-3.066,7.158,7.158,0,0,0-3.868-1.084,7.449,7.449,0,0,0-5.307,2.086q-2.206,2.086-2.206,7a8.647,8.647,0,0,0,2.117,6.161,7,7,0,0,0,5.336,2.257,7,7,0,0,0,5.381-2.272A9.14,9.14,0,0,0-100.726-55.605Zm26.011,10.823h-3.622L-81.214-49.3q-.6-.935-.924-1.41-.477-.713-1.014-1.4a6.286,6.286,0,0,0-.865-.958,9.587,9.587,0,0,0-1.222-.95,5.743,5.743,0,0,0-2.474-.416h-3.354v9.65h-2.907V-66.5h9.7a15.808,15.808,0,0,1,3.764.356,4.647,4.647,0,0,1,2.243,1.232,6.355,6.355,0,0,1,1.431,2.227,6.175,6.175,0,0,1,.343,2.108,6.155,6.155,0,0,1-.328,2.049,4.908,4.908,0,0,1-1.7,2.331,8.443,8.443,0,0,1-4.129,1.529,7.617,7.617,0,0,1,2.43,1.737A15.478,15.478,0,0,1-78.5-50.706Zm-4.755-15.8a3.062,3.062,0,0,0-1.282-2.672,5.818,5.818,0,0,0-3.4-.846h-6.916v7.186h6.186a11.46,11.46,0,0,0,2.527-.223,3.794,3.794,0,0,0,1.647-.831,3.913,3.913,0,0,0,.932-1.151A3.2,3.2,0,0,0-79.47-60.579Z" transform="translate(6233.996 -1344.839)" fill="#fff"></path> <path id="Path_66" d="M7122.876-1213.8H7012.282v-47.292h50.242v29.261H7030.13v-10.095h20.517v-7.821H7023.63v25.167h99.246Z" transform="translate(-1065 -155)" fill="red"></path></g></svg>