<?xml version="1.0" encoding="UTF-8" standalone="no"?>
<svg xmlns="http://www.w3.org/2000/svg" viewBox="0 0 602.35333 295.52933" height="295.52933" width="602.35333" xml:space="preserve" id="svg2" version="1.1">
  <metadata id="metadata8"></metadata>
    <defs id="defs6">
    <clipPath id="clipPath18">
      <path id="path16" d="M 0,221.647 H 451.765 V 0 H 0 Z"></path>
    </clipPath>
  </defs>
    <g transform="matrix(1.3333333,0,0,-1.3333333,0,295.52933)" id="g10">
    <g id="g12">
      <g clip-path="url(#clipPath18)" id="g14">
        <g transform="translate(176.7411,6.3375)" id="g20">
          <path id="path22" style="fill:#cdaa4f;fill-opacity:1;fill-rule:nonzero;stroke:none" d="m 0,0 c -0.508,0.632 -1.296,0.518 -1.955,0.67 -9.76,2.267 -17.043,11.208 -17.161,21.123 -0.122,10.366 6.681,19.344 16.606,21.844 5.244,1.32 10.313,0.76 15.226,-1.514 1.533,-0.709 2.587,-1.525 1.746,-3.614 -4.725,3.085 -9.933,4.394 -15.57,3.195 -5.642,-1.199 -9.889,-4.47 -12.868,-9.326 C -18.453,25.08 -17.433,15.429 -11.637,8.997 -4.975,1.605 3.118,0.646 14.512,5.92 15.086,4.268 14.684,3.201 12.979,2.448 10.547,1.375 8.099,0.489 5.43,0.312 3.878,-0.071 2.265,0.477 0.719,0 Z"></path>
        </g>
          <g transform="translate(50.5101,6.3375)" id="g24">
          <path id="path26" style="fill:#cdaa4f;fill-opacity:1;fill-rule:nonzero;stroke:none" d="M 0,0 C -1.28,0.99 -2.99,1.111 -4.26,2.14 -6.41,3.881 -8.752,5.501 -7.761,8.965 -6.978,8.843 -6.855,8.102 -6.534,7.616 -3.588,3.168 1.53,1.16 6.618,2.627 c 3.589,1.034 6.164,3.267 6.907,7.056 0.818,4.169 -0.474,7.748 -3.797,10.402 -3.277,2.618 -6.989,4.613 -10.492,6.91 -2.327,1.526 -4.163,3.479 -4.929,6.188 -1.874,6.62 3.417,12.147 10.424,10.951 1.727,-0.295 3.308,-0.91 4.784,-1.918 1.825,-1.247 2.43,-2.817 1.801,-5.026 -0.785,0.242 -0.992,0.999 -1.43,1.491 -2.278,2.559 -5.075,3.786 -8.484,3.139 -4.406,-0.835 -6.374,-5.397 -4.108,-9.311 1.025,-1.771 2.608,-2.947 4.27,-4.031 C 4.868,26.321 8.41,24.541 11.446,21.963 15.571,18.461 16.896,14.02 15.708,8.89 14.573,3.988 11.116,1.377 6.344,0.321 6.134,0.274 5.95,0.109 5.754,0 Z"></path>
        </g>
          <g transform="translate(397.2142,6.6491)" id="g28">
          <path id="path30" style="fill:#efe5cb;fill-opacity:1;fill-rule:nonzero;stroke:none" d="m 0,0 c -0.014,-0.104 -0.021,-0.207 -0.019,-0.312 h -3.596 c 0.003,0.106 -0.003,0.21 -0.018,0.315 C -2.421,0.856 -1.21,0.859 0,0"></path>
        </g>
          <g transform="translate(372.0208,215.067)" id="g32">
          <path id="path34" style="fill:#d7bb71;fill-opacity:1;fill-rule:nonzero;stroke:none" d="M 0,0 C -0.719,-0.53 -1.438,-0.568 -2.157,0 Z"></path>
        </g>
          <g transform="translate(378.8539,215.067)" id="g36">
          <path id="path38" style="fill:#d9bf7c;fill-opacity:1;fill-rule:nonzero;stroke:none" d="M 0,0 C -0.719,-0.581 -1.438,-0.521 -2.157,0 Z"></path>
        </g>
          <g transform="translate(442.8685,148.4894)" id="g40">
          <path id="path42" style="fill:#d8be78;fill-opacity:1;fill-rule:nonzero;stroke:none" d="M 0,0 C -0.522,0.72 -0.57,1.439 0,2.159 Z"></path>
        </g>
          <g transform="translate(442.8685,142.0114)" id="g44">
          <path id="path46" style="fill:#d6ba70;fill-opacity:1;fill-rule:nonzero;stroke:none" d="M 0,0 C -0.566,0.72 -0.53,1.439 0,2.16 Z"></path>
        </g>
          <g transform="translate(90.4003,133.3292)" id="g48">
          <path id="path50" style="fill:#cdaa4f;fill-opacity:1;fill-rule:nonzero;stroke:none" d="m 0,0 v 1.951 c 0,24.589 0.017,49.177 -0.038,73.765 -0.004,1.684 0.337,2.233 2.135,2.213 9.048,-0.1 18.099,-0.08 27.148,-0.012 1.526,0.011 2.04,-0.312 2.039,-1.96 -0.049,-42.101 -0.046,-84.201 -0.008,-126.301 0.001,-1.417 -0.372,-1.814 -1.797,-1.804 -9.289,0.064 -18.579,0.061 -27.867,0 -1.27,-0.009 -1.915,0.459 -2.54,1.489 -15.324,25.254 -30.678,50.488 -46.029,75.725 -0.183,0.302 -0.375,0.599 -0.878,1.402 v -2.316 c 0,-24.709 -0.019,-49.417 0.04,-74.125 0.004,-1.712 -0.378,-2.206 -2.146,-2.187 -9.108,0.097 -18.219,0.082 -27.328,0.008 -1.528,-0.012 -1.854,0.453 -1.852,1.91 0.039,42.041 0.043,84.081 -0.01,126.121 -0.002,1.722 0.535,2.049 2.111,2.037 9.109,-0.068 18.219,-0.063 27.328,0 1.376,0.009 2.134,-0.42 2.851,-1.603 C -31.69,51.306 -16.495,26.325 -1.304,1.342 -1.001,0.843 -0.657,0.37 -0.333,-0.115 -0.222,-0.077 -0.111,-0.039 0,0"></path>
        </g>
          <g transform="translate(305.93,81.2145)" id="g52">
          <path id="path54" style="fill:#cdaa4f;fill-opacity:1;fill-rule:nonzero;stroke:none" d="m 0,0 h -1.882 c -11.386,0 -22.772,0.027 -34.159,-0.036 -1.388,-0.008 -2.137,0.475 -2.887,1.583 -11.193,16.518 -22.429,33.008 -33.669,49.495 -0.322,0.474 -0.504,1.103 -1.152,1.331 -0.454,-0.792 -0.293,-1.649 -0.293,-2.474 -0.009,-15.951 -0.032,-31.903 0.03,-47.855 0.006,-1.648 -0.428,-2.099 -2.084,-2.084 -9.049,0.083 -18.098,0.068 -27.147,0.01 -1.416,-0.01 -1.952,0.251 -1.95,1.831 0.045,42.098 0.043,84.197 0.006,126.295 -0.001,1.449 0.319,1.949 1.863,1.937 9.109,-0.072 18.219,-0.077 27.327,0.004 1.617,0.014 1.988,-0.466 1.982,-2.024 -0.055,-16.132 -0.034,-32.264 -0.034,-48.395 v -2.121 c 0.785,0.238 0.977,0.837 1.279,1.281 11.272,16.537 22.549,33.072 33.771,49.643 0.802,1.183 1.631,1.616 3.047,1.609 11.266,-0.058 22.533,-0.032 33.8,-0.032 h 2.108 c -1.082,-1.621 -1.987,-3.002 -2.918,-4.366 -13.472,-19.752 -26.933,-39.51 -40.455,-59.227 -0.766,-1.115 -0.634,-1.781 0.05,-2.782 C -29.396,43.196 -15.454,22.749 -1.509,2.305 -1.05,1.632 -0.615,0.941 0,0"></path>
        </g>
          <g transform="translate(143.7049,146.3312)" id="g56">
          <path id="path58" style="fill:#cdaa4f;fill-opacity:1;fill-rule:nonzero;stroke:none" d="m 0,0 c 0,20.931 0.017,41.861 -0.033,62.792 -0.003,1.588 0.325,2.148 2.046,2.131 9.109,-0.09 18.219,-0.071 27.328,-0.011 1.424,0.009 1.948,-0.264 1.946,-1.84 -0.045,-42.161 -0.042,-84.322 -0.01,-126.484 10e-4,-1.295 -0.257,-1.749 -1.661,-1.739 -9.289,0.066 -18.579,0.068 -27.867,-0.001 -1.456,-0.011 -1.78,0.433 -1.778,1.819 C 0.013,-42.222 0,-21.111 0,0"></path>
        </g>
          <g transform="translate(137.5472,13.1266)" id="g60">
          <path id="path62" style="fill:#cdaa4f;fill-opacity:1;fill-rule:nonzero;stroke:none" d="m 0,0 c 0,2.665 0,4.986 0,7.308 0,9.234 -0.007,18.467 0.012,27.701 0.002,0.737 -0.406,1.737 1.06,1.747 1.432,0.01 1.109,-0.942 1.11,-1.712 0.009,-13.312 0.008,-26.622 0,-39.934 0,-0.457 0.138,-0.95 -0.416,-1.68 -10.097,12.418 -20.131,24.757 -30.528,37.544 v -2.266 c 0,-11.032 0.008,-22.065 -0.019,-33.098 -0.001,-0.602 0.444,-1.534 -0.775,-1.643 -0.927,-0.083 -1.449,0.099 -1.414,1.226 0.073,2.336 0.021,4.676 0.021,7.015 0,11.032 -0.004,22.065 0.012,33.098 0.001,0.559 -0.322,1.386 0.275,1.629 0.663,0.268 0.909,-0.6 1.26,-1.031 C -19.828,24.152 -10.266,12.391 -0.698,0.633 -0.587,0.496 -0.436,0.393 0,0"></path>
        </g>
          <g transform="translate(397.2142,6.6491)" id="g64">
          <path id="path66" style="fill:#cdaa4f;fill-opacity:1;fill-rule:nonzero;stroke:none" d="m 0,0 -3.633,0.003 c -6.351,1.003 -10.916,4.327 -13.345,10.366 -0.237,0.592 -1.035,1.492 0.028,1.913 0.905,0.36 1.71,0.072 2.179,-1.141 1.789,-4.622 5.192,-7.549 9.992,-8.717 7.338,-1.786 15.103,3.263 16.558,10.676 1.553,7.919 -3.68,15.722 -11.263,16.862 -5.413,0.813 -9.727,-1.077 -13.179,-5.195 -0.381,-0.454 -0.674,-0.944 -1.403,-0.966 -1.153,-0.036 -1.841,-0.065 -1.623,1.593 0.684,5.218 1.18,10.465 1.632,15.711 0.13,1.506 0.45,2.181 2.191,2.15 C -5.34,43.139 1.19,43.227 7.719,43.184 8.505,43.179 9.785,43.803 9.747,42.06 9.713,40.453 8.533,41.04 7.795,41.034 1.865,40.991 -4.064,41.011 -9.994,41.009 c -0.762,0 -1.643,0.187 -1.761,-0.975 -0.395,-3.898 -0.786,-7.798 -1.197,-11.881 6.747,5.085 13.63,5.909 20.561,1.126 C 13.372,25.305 15.663,18.468 13.92,11.832 12.276,5.577 6.753,0.882 0,0"></path>
        </g>
          <g transform="translate(210.1234,28.4684)" id="g68">
          <path id="path70" style="fill:#cdab4f;fill-opacity:1;fill-rule:nonzero;stroke:none" d="m 0,0 c 0,6.592 0.028,13.186 -0.024,19.777 -0.01,1.223 0.297,1.664 1.588,1.641 4.191,-0.076 8.385,-0.04 12.577,-0.02 0.861,0.004 1.504,-0.014 1.469,-1.195 C 15.577,19.049 14.853,19.192 14.143,19.192 10.789,19.189 7.434,19.138 4.082,19.217 2.783,19.248 2.29,18.915 2.304,17.524 2.37,11.172 2.363,4.818 2.308,-1.534 2.296,-2.797 2.69,-3.188 3.94,-3.149 6.632,-3.067 9.33,-3.15 12.024,-3.11 12.955,-3.097 13.458,-3.268 13.44,-4.375 13.422,-5.472 12.808,-5.469 12.036,-5.466 9.281,-5.453 6.524,-5.502 3.771,-5.441 2.68,-5.417 2.298,-5.775 2.314,-6.878 2.366,-10.473 2.37,-14.07 2.313,-17.665 c -0.02,-1.189 0.403,-1.554 1.566,-1.533 3.413,0.06 6.828,0.011 10.241,0.027 0.838,0.004 1.524,0.022 1.49,-1.18 -0.032,-1.135 -0.726,-1.028 -1.452,-1.027 -4.193,0.002 -8.386,0.046 -12.577,-0.027 -1.271,-0.022 -1.617,0.384 -1.606,1.627 C 0.029,-13.186 0,-6.593 0,0"></path>
        </g>
          <g transform="translate(267.7494,28.361)" id="g72">
          <path id="path74" style="fill:#ceab50;fill-opacity:1;fill-rule:nonzero;stroke:none" d="m 0,0 c 0,-6.407 0.015,-12.814 -0.018,-19.221 -0.004,-0.87 0.557,-2.121 -1.269,-2.085 -1.708,0.035 -1.169,1.202 -1.171,2.016 -0.026,12.035 -0.052,24.07 0.02,36.105 0.011,1.73 -0.297,2.589 -2.218,2.29 -0.935,-0.146 -1.911,-0.018 -2.868,-0.027 -0.794,-0.008 -1.518,-0.118 -1.539,1.125 -0.022,1.34 0.762,1.229 1.626,1.223 1.915,-0.014 3.833,-0.082 5.743,0.022 1.321,0.072 1.742,-0.311 1.727,-1.689 C -0.04,13.173 0,6.586 0,0"></path>
        </g>
          <g transform="translate(84.3441,28.6579)" id="g76">
          <path id="path78" style="fill:#ceab50;fill-opacity:1;fill-rule:nonzero;stroke:none" d="m 0,0 c 0,6.533 0.003,13.067 -0.003,19.602 -0.001,0.853 -0.145,1.637 1.207,1.64 1.258,0.003 1.293,-0.61 1.292,-1.554 -0.018,-13.248 -0.018,-26.495 0,-39.743 10e-4,-0.946 -0.041,-1.556 -1.296,-1.553 -1.355,0.003 -1.203,0.796 -1.202,1.646 C 0.002,-13.308 0,-6.654 0,0"></path>
        </g>
          <g transform="translate(374.2044,110.5036)" id="g80">
          <path id="path82" style="fill:#cdaa4f;fill-opacity:1;fill-rule:nonzero;stroke:none" d="M 0,0 C -19.613,-0.107 -35.65,15.862 -35.729,35.579 -35.806,55.3 -20.038,71.377 -0.529,71.468 19.381,71.561 35.509,55.774 35.595,36.107 35.684,16.14 19.879,0.108 0,0 m 68.664,41.944 c -0.445,2.221 -0.286,4.499 -0.735,6.729 -2.827,14.006 -9.143,26.085 -19.326,36.199 -8.623,8.563 -18.734,14.377 -30.37,17.701 -3.984,1.137 -8.049,1.617 -12.145,1.99 H 4.649 c -0.718,-0.293 -1.438,-0.293 -2.157,0 h -4.676 c -0.718,-0.293 -1.438,-0.293 -2.157,0 h -2.158 c -2.355,-0.872 -4.874,-0.87 -7.303,-1.365 -36.088,-7.348 -61.366,-42.482 -53.661,-81.059 7.402,-37.064 42.728,-60.704 80,-54.01 27.271,4.898 49.308,26.619 54.768,53.9 0.487,2.436 0.478,4.961 1.359,7.32 v 2.159 c -0.294,0.72 -0.294,1.439 0,2.159 v 4.319 c -0.294,0.72 -0.294,1.439 0,2.159 z"></path>
        </g>
          <g transform="translate(347.8441,20.2995)" id="g84">
          <path id="path86" style="fill:#cdaa4f;fill-opacity:1;fill-rule:nonzero;stroke:none" d="M 0,0 C -7.551,0.044 -13.622,6.421 -13.566,14.249 -13.512,21.887 -7.214,28.188 0.26,28.083 7.792,27.977 14.023,21.64 14.012,14.097 13.999,6.418 7.576,-0.044 0,0 M 12.608,24.315 C 8.264,29.539 2.565,31.313 -4.002,29.658 -12.726,27.46 -17.709,18.994 -15.712,10.102 -13.845,1.79 -5.595,-3.399 3.236,-1.82 3.698,-1.738 4.298,-1.479 4.592,-1.883 4.958,-2.387 4.322,-2.711 4.043,-3.056 3.439,-3.799 2.799,-4.512 2.172,-5.235 c -2.217,-2.558 -4.435,-5.116 -6.899,-7.957 1.621,0.041 2.755,-0.286 3.776,0.932 3.229,3.854 6.584,7.602 9.889,11.392 2.205,2.529 4.419,5.055 5.776,8.18 2.64,6.079 2.169,11.864 -2.106,17.003"></path>
        </g>
          <g transform="translate(300.7855,20.2995)" id="g88">
          <path id="path90" style="fill:#cdaa4f;fill-opacity:1;fill-rule:nonzero;stroke:none" d="m 0,0 c -7.52,0.036 -13.667,6.479 -13.59,14.242 0.074,7.556 6.272,13.831 13.668,13.841 7.611,0.009 13.926,-6.335 13.92,-13.985 C 13.991,6.388 7.611,-0.038 0,0 m 13.635,22.92 c -3.741,5.528 -9.071,7.966 -15.792,7.092 -8.802,-1.145 -15.23,-9.491 -13.905,-18.075 1.463,-9.484 9.916,-15.599 19.081,-13.807 0.52,0.101 1.227,0.431 1.52,-0.02 0.413,-0.633 -0.377,-1.051 -0.729,-1.463 -2.729,-3.181 -5.497,-6.328 -8.41,-9.664 1.871,-0.496 3.041,-0.041 4.121,1.306 2.096,2.617 4.406,5.063 6.574,7.624 2.782,3.287 5.955,6.276 7.987,10.148 2.988,5.693 3.226,11.431 -0.447,16.859"></path>
        </g>
      </g>
    </g>
  </g>
</svg>
