<svg width="170" height="81" viewBox="0 0 110 41" fill="none" xmlns="http://www.w3.org/2000/svg">
<path fill-rule="evenodd" clip-rule="evenodd" d="M60.94 31.9147L53.6366 19.2497V32.8029H47.4282V6.48389H52.1765L60.9431 21.6812L69.7065 6.48389H74.4548V32.8029H68.2465V19.2528L60.94 31.9147ZM25.1939 36.5983L24.2185 39.7448H23.6898L23.0039 37.5967C22.985 37.5463 22.9661 37.4802 22.9504 37.4046C22.9409 37.4424 22.9315 37.4739 22.9252 37.5085C22.9158 37.54 22.9063 37.5715 22.8969 37.5967L22.2046 39.7448H21.6728L20.7005 36.5983H21.1882C21.2386 36.5983 21.2826 36.6109 21.3141 36.6329C21.3487 36.655 21.3707 36.6896 21.3833 36.7306L21.9183 38.6109C21.9277 38.6582 21.9403 38.7086 21.9529 38.7621C21.9623 38.8157 21.9749 38.8755 21.9875 38.9322C22.0001 38.8724 22.0127 38.8157 22.0252 38.7621C22.041 38.7086 22.0536 38.6582 22.0693 38.6109L22.686 36.7306C22.6986 36.6959 22.7207 36.6676 22.7553 36.6392C22.7899 36.6109 22.8308 36.5983 22.8811 36.5983H23.0511C23.1014 36.5983 23.1455 36.6109 23.1769 36.6361C23.2084 36.6613 23.2336 36.6928 23.2493 36.7306L23.8629 38.6109C23.8944 38.6991 23.9195 38.8031 23.9447 38.9228C23.9636 38.8094 23.9856 38.7054 24.0076 38.6109L24.5426 36.7306C24.552 36.6959 24.5709 36.6644 24.6087 36.6361C24.6433 36.6109 24.6873 36.5951 24.7345 36.5951H25.1939V36.5983ZM27.7459 38.5542L27.3651 37.5085C27.3462 37.4613 27.3274 37.4078 27.3053 37.3448C27.2865 37.2818 27.2644 37.2125 27.2456 37.1369C27.2267 37.2093 27.2078 37.2786 27.1858 37.3448C27.1637 37.4109 27.1449 37.4644 27.126 37.5148L26.7452 38.5574H27.7459V38.5542ZM28.778 39.7417H28.3249C28.2745 39.7417 28.2336 39.7291 28.199 39.7039C28.1675 39.6787 28.1423 39.6472 28.1266 39.6094L27.8906 38.9669H26.5879L26.3519 39.6094C26.3393 39.6441 26.3173 39.6724 26.2858 39.7007C26.2512 39.7291 26.2103 39.7417 26.16 39.7417H25.7037L26.9403 36.5951H27.5445L28.778 39.7417ZM31.7012 37.077H30.7541V39.7417H30.1719V37.077H29.2248V36.5951H31.7044V37.077H31.7012ZM34.8762 39.0015C34.9077 39.0015 34.936 39.0141 34.9612 39.0393L35.1909 39.2881C35.0618 39.4456 34.9077 39.5685 34.7189 39.6535C34.5332 39.7385 34.3098 39.7795 34.0486 39.7795C33.8158 39.7795 33.6049 39.7385 33.4193 39.6598C33.2336 39.5811 33.0732 39.4708 32.941 39.3259C32.8088 39.1842 32.7081 39.0141 32.6389 38.8157C32.5697 38.6204 32.5319 38.4031 32.5319 38.17C32.5319 37.9338 32.5697 37.7164 32.6452 37.5211C32.7207 37.3259 32.8277 37.1558 32.963 37.014C33.1015 36.8723 33.262 36.7621 33.4539 36.6833C33.6427 36.6046 33.8535 36.5668 34.0832 36.5668C34.3129 36.5668 34.5143 36.6046 34.6937 36.6802C34.8699 36.7558 35.0209 36.8534 35.1468 36.9762L34.9517 37.2471C34.9423 37.266 34.9265 37.2818 34.9077 37.2944C34.8888 37.307 34.8636 37.3133 34.8321 37.3133C34.8101 37.3133 34.7881 37.307 34.7661 37.2944C34.744 37.2818 34.7189 37.266 34.6905 37.2503C34.6622 37.2314 34.6308 37.2125 34.5961 37.1904C34.5615 37.1684 34.5175 37.1495 34.4703 37.1306C34.4231 37.1117 34.3664 37.0959 34.3066 37.0833C34.2437 37.0707 34.1713 37.0644 34.0864 37.0644C33.9448 37.0644 33.8189 37.0896 33.7025 37.14C33.5861 37.1904 33.4854 37.2629 33.4004 37.3574C33.3155 37.4519 33.2494 37.5684 33.2053 37.7038C33.1581 37.8424 33.1361 37.9967 33.1361 38.1731C33.1361 38.3495 33.1613 38.507 33.2116 38.6456C33.262 38.7842 33.328 38.9007 33.413 38.9921C33.498 39.0865 33.5987 39.159 33.7151 39.2094C33.8315 39.2598 33.9542 39.285 34.0895 39.285C34.1682 39.285 34.2406 39.2818 34.3066 39.2724C34.3696 39.2629 34.4294 39.2503 34.4829 39.2314C34.5364 39.2125 34.5898 39.1873 34.637 39.159C34.6842 39.1306 34.7346 39.0928 34.7818 39.0488C34.7975 39.0362 34.8101 39.0267 34.829 39.0173C34.8447 39.0047 34.8605 39.0015 34.8762 39.0015ZM38.9543 36.5983V39.7448H38.369V38.3684H36.8901V39.7448H36.3016V36.5983H36.8901V37.9527H38.3658V36.5983H38.9543ZM40.9492 37.0644V37.9369H42.0474V38.3873H40.9492V39.2787H42.3432V39.7448H40.3608V36.5983H42.3432V37.0644H40.9492V37.0644ZM45.2444 37.1715C45.2255 37.1999 45.2067 37.2251 45.1878 37.2377C45.1689 37.2503 45.1437 37.2597 45.1154 37.2597C45.0871 37.2597 45.0525 37.2471 45.0179 37.2251C44.9833 37.203 44.9392 37.1778 44.892 37.1495C44.8417 37.1211 44.785 37.0959 44.7189 37.0739C44.6529 37.0518 44.5742 37.0392 44.4829 37.0392C44.4011 37.0392 44.3319 37.0487 44.269 37.0676C44.2092 37.0865 44.1557 37.1148 44.1148 37.1495C44.0739 37.1841 44.0424 37.2251 44.0235 37.2755C44.0015 37.3227 43.9921 37.3794 43.9921 37.4361C43.9921 37.5085 44.0141 37.5715 44.055 37.6188C44.0959 37.6692 44.1494 37.7101 44.2186 37.7448C44.2878 37.7794 44.3634 37.8109 44.4515 37.8393C44.5396 37.8676 44.6277 37.896 44.7189 37.9275C44.8102 37.959 44.8983 37.9968 44.9864 38.0345C45.0745 38.0755 45.15 38.129 45.2193 38.192C45.2885 38.255 45.342 38.3338 45.3829 38.4251C45.4238 38.5165 45.4427 38.6267 45.4427 38.759C45.4427 38.9007 45.4206 39.033 45.3703 39.159C45.3231 39.2818 45.2507 39.3921 45.1563 39.4834C45.0619 39.5748 44.9486 39.6472 44.8133 39.7007C44.678 39.7543 44.5238 39.7795 44.3508 39.7795C44.2501 39.7795 44.1525 39.77 44.055 39.7511C43.9574 39.7322 43.8662 39.7039 43.7749 39.6692C43.6868 39.6346 43.6019 39.5905 43.5232 39.5401C43.4445 39.4897 43.3753 39.433 43.3155 39.37L43.4886 39.0897C43.5043 39.0677 43.5232 39.0519 43.5452 39.0393C43.5673 39.0236 43.5924 39.0173 43.6208 39.0173C43.6585 39.0173 43.6963 39.033 43.7372 39.0614C43.7781 39.0897 43.8284 39.1243 43.8882 39.1621C43.948 39.1968 44.0141 39.2314 44.0928 39.2598C44.1714 39.2881 44.2627 39.3039 44.3728 39.3039C44.5396 39.3039 44.6686 39.2629 44.7598 39.1842C44.8511 39.1054 44.8983 38.9921 44.8983 38.844C44.8983 38.7621 44.8763 38.6928 44.8385 38.6424C44.7976 38.5889 44.741 38.5448 44.6749 38.5102C44.6057 38.4755 44.5301 38.444 44.442 38.4188C44.3539 38.3936 44.2658 38.3684 44.1777 38.3369C44.0865 38.3086 43.9984 38.2739 43.9134 38.233C43.8284 38.192 43.7498 38.1385 43.6805 38.0755C43.6113 38.0093 43.5578 37.9275 43.5169 37.8298C43.476 37.7322 43.454 37.6125 43.454 37.4676C43.454 37.3542 43.476 37.2408 43.5232 37.1337C43.5704 37.0266 43.6333 36.929 43.7214 36.844C43.8096 36.7589 43.9165 36.6928 44.0424 36.6424C44.1714 36.592 44.3162 36.5668 44.4829 36.5668C44.6686 36.5668 44.8385 36.5951 44.9958 36.655C45.1532 36.7117 45.2853 36.7936 45.3955 36.8975L45.2444 37.1715ZM50.4207 38.5542L50.0368 37.5085C50.0179 37.4613 49.999 37.4078 49.977 37.3448C49.9581 37.2818 49.9361 37.2125 49.9172 37.1369C49.8983 37.2093 49.8795 37.2786 49.8574 37.3448C49.8385 37.4109 49.8165 37.4644 49.7976 37.5148L49.4169 38.5574H50.4207V38.5542ZM51.4528 39.7417H50.9997C50.9493 39.7417 50.9084 39.7291 50.8738 39.7039C50.8423 39.6787 50.8203 39.6472 50.8014 39.6094L50.5686 38.9669H49.2659L49.0299 39.6094C49.0173 39.6441 48.9952 39.6724 48.9606 39.7007C48.926 39.7291 48.8851 39.7417 48.8379 39.7417H48.3816L49.6183 36.5951H50.213L51.4528 39.7417ZM55.1375 36.5983V39.7448H54.8386C54.7914 39.7448 54.7536 39.7354 54.7222 39.7228C54.6907 39.707 54.6592 39.6818 54.6309 39.6472L52.9915 37.5495C53.0009 37.644 53.0041 37.7322 53.0041 37.8141V39.7448H52.488V36.5983H52.7933C52.8184 36.5983 52.8405 36.5983 52.8562 36.6014C52.8751 36.6046 52.8908 36.6077 52.9034 36.614C52.9191 36.6203 52.9317 36.6298 52.9443 36.6424C52.9569 36.655 52.9726 36.6707 52.9883 36.6928L54.6341 38.7968C54.6309 38.7464 54.6246 38.696 54.6246 38.6456C54.6215 38.5952 54.6215 38.5511 54.6215 38.507V36.5951H55.1375V36.5983ZM59.3383 38.17C59.3383 38.3999 59.3005 38.6109 59.2219 38.8031C59.1464 38.9952 59.0394 39.1621 58.8978 39.3007C58.7593 39.4393 58.5925 39.5496 58.3975 39.6252C58.2024 39.7007 57.9852 39.7417 57.7461 39.7417H56.5504V36.5951H57.7461C57.9852 36.5951 58.2024 36.6329 58.3975 36.7117C58.5925 36.7873 58.7593 36.8975 58.8978 37.0361C59.0362 37.1747 59.1464 37.3416 59.2219 37.5337C59.3005 37.729 59.3383 37.9401 59.3383 38.17ZM58.7373 38.17C58.7373 37.9967 58.7153 37.8424 58.6681 37.7038C58.6209 37.5652 58.5548 37.4519 58.4698 37.3574C58.3849 37.2629 58.281 37.1904 58.1583 37.14C58.0356 37.0896 57.8971 37.0644 57.7429 37.0644H57.1325V39.2787H57.7429C57.8971 39.2787 58.0356 39.2535 58.1583 39.2031C58.281 39.1527 58.3849 39.0803 58.4698 38.9826C58.5579 38.8881 58.6209 38.7716 58.6681 38.6361C58.7153 38.4976 58.7373 38.3432 58.7373 38.17ZM63.8789 38.6235C63.8789 38.7999 63.8569 38.9606 63.8128 39.1023C63.7719 39.244 63.7059 39.3669 63.6178 39.4677C63.5328 39.5685 63.4227 39.644 63.2936 39.6976C63.1646 39.7511 63.0136 39.7763 62.8437 39.7763C62.765 39.7763 62.6895 39.7732 62.614 39.7606C62.5385 39.7511 62.4598 39.7385 62.378 39.7165C62.3811 39.6598 62.3874 39.6 62.3937 39.5433C62.4 39.4866 62.4031 39.4267 62.4094 39.37C62.4126 39.3385 62.4252 39.3133 62.4472 39.2913C62.4692 39.2724 62.4975 39.2629 62.5353 39.2629C62.5605 39.2629 62.5919 39.2661 62.6329 39.2787C62.6738 39.2881 62.721 39.2944 62.7839 39.2944C62.8657 39.2944 62.9381 39.2818 63.0042 39.2598C63.0671 39.2377 63.1206 39.1968 63.1646 39.1464C63.2087 39.096 63.2402 39.0267 63.2622 38.9448C63.2842 38.8598 63.2968 38.7621 63.2968 38.6424V36.6014H63.8821V38.6235H63.8789ZM65.8456 37.0644V37.9369H66.9469V38.3873H65.8456V39.2787H67.2396V39.7448H65.2572V36.5983H67.2396V37.0644H65.8456V37.0644ZM72.6455 36.5983L71.6701 39.7448H71.1414L70.4554 37.5967C70.4366 37.5463 70.4208 37.4802 70.4019 37.4046C70.3925 37.4424 70.3862 37.4739 70.3768 37.5085C70.3673 37.54 70.3579 37.5715 70.3485 37.5967L69.6562 39.7448H69.1276L68.1552 36.5983H68.643C68.6933 36.5983 68.7374 36.6109 68.7688 36.6329C68.8034 36.655 68.8255 36.6896 68.8349 36.7306L69.3698 38.6109C69.3824 38.6582 69.3919 38.7086 69.4045 38.7621C69.4139 38.8157 69.4265 38.8755 69.4391 38.9322C69.4485 38.8724 69.4642 38.8157 69.4768 38.7621C69.4894 38.7086 69.5051 38.6582 69.5209 38.6109L70.1376 36.7306C70.1502 36.6959 70.1722 36.6676 70.2069 36.6392C70.2415 36.6109 70.2824 36.5983 70.3327 36.5983H70.5026C70.553 36.5983 70.5939 36.6109 70.6254 36.6361C70.6568 36.6613 70.682 36.6928 70.6977 36.7306L71.3113 38.6109C71.3428 38.6991 71.3711 38.8031 71.3931 38.9228C71.412 38.8094 71.434 38.7054 71.4561 38.6109L71.991 36.7306C72.0004 36.6959 72.0225 36.6644 72.0571 36.6361C72.0917 36.6109 72.1358 36.5951 72.183 36.5951H72.6455V36.5983ZM74.329 37.0644V37.9369H75.4272V38.3873H74.329V39.2787H75.7229V39.7448H73.7405V36.5983H75.7229V37.0644H74.329V37.0644ZM78.7941 39.2598V39.7417H76.9533V36.5951H77.5386V39.2566H78.7941V39.2598ZM81.7614 39.2598V39.7417H79.9206V36.5951H80.5059V39.2566H81.7614V39.2598ZM83.4732 37.0644V37.9369H84.5713V38.3873H83.4732V39.2787H84.8671V39.7448H82.8847V36.5983H84.8671V37.0644H83.4732V37.0644ZM87.0446 38.0944C87.1547 38.0944 87.2491 38.0786 87.331 38.0534C87.4128 38.0251 87.4788 37.9873 87.5323 37.9401C87.5858 37.8928 87.6236 37.833 87.6519 37.7668C87.6771 37.7007 87.6897 37.6282 87.6897 37.5463C87.6897 37.3857 87.6393 37.2629 87.5323 37.1778C87.4285 37.0928 87.2649 37.0487 87.0509 37.0487H86.6765V38.0944H87.0446V38.0944ZM88.5487 39.7417H88.0232C87.9225 39.7417 87.8502 39.7007 87.8061 39.6252L87.1453 38.6172C87.1201 38.5794 87.095 38.5542 87.0635 38.5385C87.0352 38.5228 86.988 38.5165 86.9313 38.5165H86.6827V39.7448H86.0975V36.5983H87.0572C87.2712 36.5983 87.4537 36.6203 87.6047 36.6644C87.7589 36.7085 87.8816 36.7715 87.9792 36.8503C88.0767 36.929 88.1491 37.0235 88.1963 37.1369C88.2435 37.2471 88.2655 37.37 88.2655 37.5022C88.2655 37.6093 88.2498 37.707 88.2183 37.8015C88.1868 37.896 88.1428 37.981 88.083 38.0566C88.0232 38.1322 87.9509 38.2015 87.8659 38.2582C87.7809 38.3149 87.6802 38.3621 87.5701 38.3968C87.6079 38.4188 87.6425 38.444 87.6739 38.4724C87.7054 38.5039 87.7337 38.5385 87.762 38.5794L88.5487 39.7417ZM90.8049 38.5259V39.7448H90.2227V38.5259L89.0774 36.5983H89.5903C89.6406 36.5983 89.6815 36.6109 89.713 36.6361C89.7444 36.6613 89.7665 36.6928 89.7885 36.7306L90.3612 37.7794C90.3958 37.8424 90.4241 37.8991 90.4493 37.9558C90.4745 38.0093 90.4965 38.066 90.5154 38.1227C90.5343 38.066 90.5563 38.0125 90.5815 37.9558C90.6066 37.8991 90.6349 37.8424 90.6664 37.7794L91.2391 36.7306C91.2548 36.6991 91.2769 36.6676 91.3115 36.6424C91.3429 36.614 91.3838 36.6014 91.4342 36.6014H91.9534L90.8049 38.5259ZM41.2167 6.48389V32.8029H35.0084V6.48389H41.2167ZM12 6.48389H31.3582V12.6983H24.7817V32.8029H18.5734V12.6983H12V6.48389ZM85.4083 12.3329V26.957H96V27.231V32.8029H85.4083H79.2V6.48389H96V12.3329H85.4083V12.3329ZM87.9634 22.5695H96V16.7204H87.9634V22.5695Z" fill="#363431"/>
<path fill-rule="evenodd" clip-rule="evenodd" d="M41.5818 1H46.3301V5.38755C46.3301 6.64744 45.8077 7.77188 44.8448 8.58136L43.3879 7.12304C43.8285 6.67263 44.0865 6.10883 44.1306 5.38755H41.5786V1H41.5818Z" fill="#FFF343"/>
<path fill-rule="evenodd" clip-rule="evenodd" d="M41.5815 1H42.0787V1.04095V2.03941H43.0794H43.5986V2.55911V3.55757H44.596H45.1152V4.07727V5.07888H46.1127H46.3267V5.3844C46.3267 5.85371 46.2543 6.30412 46.1127 6.72618V6.60019V5.59858H45.1152H44.596V5.07888V4.08357H43.5986H43.0794V3.56072V2.56226H42.0787H41.5815V1V1ZM42.6011 1H43.1203H44.1209H44.6401V1.5197V2.52131H45.6407H46.1599V3.04101V4.04262H46.333V4.56233H46.1599H45.6376V4.04262V3.04101H44.6369H44.1177V2.52131V1.5197H43.1203H42.6011V1ZM45.1593 1H45.6785V1.47876H46.3298V1.99846H45.6785H45.1593V1.47876V1ZM45.6753 7.64274C45.5589 7.82543 45.4236 7.99866 45.2757 8.16245H45.0743V7.64274V6.64114H44.0768H43.7622C43.9101 6.39546 44.0171 6.12143 44.0768 5.81591V6.12143H45.0775H45.5967V6.64114V7.64274H45.6753ZM44.5551 8.29159L44.0359 7.77188V7.68369H43.9478L43.4286 7.16399H44.0359H44.5551V7.68369V8.29159ZM44.0768 5.38755H43.5576V5.12297H42.557H42.0378V4.60327V3.60166H41.5815V3.08196H42.0378H42.557V3.60166V4.60327H43.5576H44.0768V5.12297V5.38755Z" fill="#DC7D43"/>
</svg>
