<?xml version="1.0" encoding="utf-8"?>
<!-- Generator: Adobe Illustrator 28.1.0, SVG Export Plug-In . SVG Version: 6.00 Build 0)  -->
<svg version="1.1" id="Layer_1" xmlns="http://www.w3.org/2000/svg" xmlns:xlink="http://www.w3.org/1999/xlink" x="0px" y="0px"
	 viewBox="0 0 1047.2 981.4" style="enable-background:new 0 0 1047.2 981.4;" xml:space="preserve">
<style type="text/css">
	.st0{fill:#2B2D72;}
	.st1{fill-rule:evenodd;clip-rule:evenodd;fill:url(#SVGID_1_);}
	.st2{fill-rule:evenodd;clip-rule:evenodd;fill:url(#SVGID_00000041980973213048856790000004872500798848161665_);}
	.st3{fill-rule:evenodd;clip-rule:evenodd;fill:#E9E9EA;}
	.st4{fill:#E9E9EA;}
	.st5{fill:#BFC1C2;}
	.st6{fill:url(#SVGID_00000135651555287978567340000016564768517605650084_);}
	.st7{fill:url(#SVGID_00000032646332238549029000000009046458387752796567_);}
	.st8{fill:url(#SVGID_00000069369160261720779050000001051249373612238985_);}
	.st9{fill:url(#SVGID_00000023250224023982739990000000687137026442956434_);}
	.st10{fill:url(#SVGID_00000163763155532223494410000002945224845381616804_);}
	.st11{fill:url(#SVGID_00000150081365564620810910000004233714538668170171_);}
	.st12{fill:url(#SVGID_00000019651016310789270310000017340063320502380680_);}
	.st13{fill:url(#SVGID_00000036937259448036837150000000348481167499613588_);}
	.st14{fill:url(#SVGID_00000168800742348842399850000017484196159860225713_);}
	.st15{fill:url(#SVGID_00000160175887989344060360000006215820603605666463_);}
	.st16{fill:url(#SVGID_00000008127803180409339280000017014411499472762765_);}
	.st17{fill:url(#SVGID_00000134213643021970923640000007607317473990148505_);}
	.st18{fill:url(#SVGID_00000178884347356089613640000002623097894860636289_);}
	.st19{fill:url(#SVGID_00000038413417754328404920000013717667113067439012_);}
	.st20{fill:url(#SVGID_00000067207759800019537580000016105014095155340692_);}
</style>
<rect class="st0" width="1047.1" height="981.4"/>
<g>
	
		<linearGradient id="SVGID_1_" gradientUnits="userSpaceOnUse" x1="424.2429" y1="615.1366" x2="656.5654" y2="448.1548" gradientTransform="matrix(1 0 0 -1 0 981)">
		<stop  offset="0" style="stop-color:#939598"/>
		<stop  offset="0.4723" style="stop-color:#E6E7E8"/>
		<stop  offset="0.8045" style="stop-color:#BBBDBF"/>
		<stop  offset="1" style="stop-color:#A7A9AC"/>
	</linearGradient>
	<path class="st1" d="M642.2,578.3H563c-0.6-5.4-6-10.1-16.8-12.1c35.6,1.3,41.7-16.1,32.9-51l-54.4-181.7l-54.4,181.6
		c-8.7,35-2.7,52.4,32.9,51c-10.8,2-16.1,6.7-16.8,12.1h-79.2L524.7,214l0.1-0.3l0.1,0.3L642.2,578.3z"/>
	
		<linearGradient id="SVGID_00000146492872412369481220000013283474620043153342_" gradientUnits="userSpaceOnUse" x1="530.6015" y1="763.1138" x2="762.9241" y2="596.132" gradientTransform="matrix(1 0 0 -1 0 981)">
		<stop  offset="0" style="stop-color:#FFFFFF"/>
		<stop  offset="1" style="stop-color:#A6A8AB"/>
	</linearGradient>
	
		<polygon style="fill-rule:evenodd;clip-rule:evenodd;fill:url(#SVGID_00000146492872412369481220000013283474620043153342_);" points="
		524.9,213.5 524.9,214.1 524.8,213.7 	"/>
</g>
<g>
	<polygon class="st3" points="524.8,213 524.7,213.3 524.7,212.8 524.7,212.8 	"/>
	<path class="st4" d="M548.6,578.2h-47.6c-0.1-3.3,3.2-6,6.4-7.1c3.2-1.2,7-1.5,10-3.2c1.2-0.6,2.4-1.5,3-2.8c0.4-0.9,0.4-1.9,0.4-3
		c0.1-10.1,0.2-20.2,0.2-30.4c0-2.1,0-4.4-1.1-6.2c-1.2-1.9-3.4-3.1-5.4-4.4c-4.1-2.5-7.7-5.8-10.2-9.7c-6.2-10.3-3.6-23.1-0.7-34.7
		c7.1-28.9,14.1-57.9,21.2-86.8l0,0h0.3c7.1,28.9,14.1,57.9,21.2,86.8c2.8,11.5,5.5,24.4-0.7,34.7c-2.4,4-6.1,7.2-10.2,9.7
		c-2,1.2-4.3,2.3-5.4,4.4c-1.1,1.9-1.1,4.1-1.1,6.2c0.1,10.1,0.1,20.3,0.2,30.4c0,1,0,2,0.4,3c0.6,1.3,1.7,2.1,3,2.8
		c3.1,1.6,6.7,1.9,10,3.2C545.5,572.1,548.7,574.8,548.6,578.2z"/>
</g>
<g>
	<path class="st5" d="M739.5,753.8c-0.2,0.1-0.3,0.3-0.3,0.4c-0.1,0.1-0.1,0.1-0.1,0.2c-0.6,1-1.4,1.5-2.2,1.5l-1.2-0.2l-1.9-0.7
		c-1.3-0.5-2.6-0.7-3.8-0.7c-0.8,0-1.7,0.1-2.4,0.3l-2.1,0.8c0.6-0.9,1.7-1.7,3.2-2.3l4.5-1.6c2.7-1.1,4.5-2.3,5.6-3.6
		c1.1-1.4,1.7-3.1,1.7-5c-0.1-1.7-0.6-3-1.4-4c-1.2-1.2-2.7-1.9-4.6-1.9c-2,0-3.8,0.9-5.3,2.7c-1.5,1.8-2.2,3.6-2.2,5.6
		c0.1,0.9,0.3,1.6,0.6,1.9c0.5,0.4,1,0.6,1.9,0.6c1.2-0.1,2.2-0.6,3.1-1.8c0.8-1.3,1.3-2.5,1.3-3.7l-0.4-0.4l-0.2,0.6
		c-0.4,1.2-0.7,2.2-1.2,3.1c-0.7,1.2-1.7,1.9-2.8,1.9c-1.3,0-1.9-0.7-1.9-2c0-1.8,0.7-3.5,2.1-5.2c1.4-1.7,3.1-2.5,5-2.5
		c0.9,0.1,1.7,0.3,2,0.7c0.4,0.5,0.6,1.2,0.6,2l-0.3,2l-0.6,2.2c-0.6,1.6-1.2,2.9-2.1,3.8c-0.8,0.9-2,1.9-3.7,2.8l-5.9,3.6
		c-1,0.8-1.7,1.9-2,3l-0.1,0.9l0.2,0.3l0.2-0.2l0.4-0.5c0.4-1,0.8-1.7,1.2-1.9c0.6-0.4,1.2-0.6,2-0.6c0.6,0.2,1.1,0.4,1.5,0.6
		l1.6,0.9l0.9,0.7l1.2,0.5c0.6,0.2,1.5,0.4,2.3,0.4c1.7-0.1,3-0.6,4-1.5c0.6-0.7,1.2-1.8,1.9-3l0.3-0.6l-0.2-0.2L739.5,753.8z"/>
	<path class="st5" d="M758.6,738.1c-0.8-0.9-1.9-1.4-3-1.4c-2.3,0-4.8,1-7.5,3.1c-2.6,2-4.4,4.4-5.3,7l-0.6,1.8l-0.2,1.3v1
		c0.1,1.3,0.2,2.3,0.4,3.1c0.3,0.9,0.6,1.8,1.1,2.5c1.1,1.7,2.3,2.5,3.7,2.5c3.3-0.1,6.3-2.3,8.9-6.7c2.2-3.8,3.3-7.1,3.3-10.3
		C759.7,740.3,759.3,739,758.6,738.1z M754.8,753.2c-2.1,3.3-4.5,5-7,5c-1.7-0.1-2.5-1.1-2.5-3.2c0.1-2.5,1-5.9,3-10.3
		c2.5-5,4.9-7.6,7.2-7.6c0.9,0.1,1.6,0.5,1.9,1.1c0.4,0.7,0.6,1.9,0.6,3.2C758,745.9,756.9,749.8,754.8,753.2z"/>
	<path class="st5" d="M777.9,738.1c-0.8-0.9-1.9-1.4-3-1.4c-2.3,0-4.8,1-7.5,3.1c-2.6,2-4.4,4.4-5.3,7l-0.6,1.8l-0.1,1.3v1
		c0.1,1.3,0.2,2.3,0.4,3.1c0.3,0.9,0.6,1.8,1.1,2.5c1,1.7,2.3,2.5,3.7,2.5c3.3-0.1,6.3-2.3,8.9-6.7c2.2-3.8,3.3-7.1,3.3-10.3
		C779,740.3,778.6,739,777.9,738.1z M774.1,753.2c-2.1,3.3-4.5,5-7,5c-1.7-0.1-2.5-1.1-2.5-3.2c0.1-2.5,1-5.9,3-10.3
		c2.5-5,4.9-7.6,7.2-7.6c0.9,0.1,1.6,0.5,1.9,1.1c0.4,0.7,0.6,1.9,0.6,3.2C777.3,745.9,776.2,749.8,774.1,753.2z"/>
	<path class="st5" d="M795.7,741.6c0-1.4-0.6-2.5-1.6-3.3s-2.4-1.2-4.1-1.2c-2,0.1-3.6,0.6-4.8,1.8c-1,0.9-1.6,2-1.6,3.3
		c0,0.7,0.2,1.3,0.6,1.9c0.5,0.5,1.1,0.6,1.9,0.6c0.9,0,1.8-0.4,2.3-1.1c0.6-0.7,0.9-1.8,0.9-3.2l-0.3-0.6c-0.2,0-0.4,0.2-0.4,0.5
		c0,1.2-0.3,2.1-0.8,2.8c-0.6,0.6-1.2,1-1.9,1c-0.7-0.1-1.3-0.2-1.6-0.6c-0.3-0.6-0.5-1-0.5-1.5c0-1.1,0.5-2.1,1.5-3
		c1.1-1,2.6-1.5,4.4-1.5c0.8,0.1,1.5,0.4,1.8,0.8c0.4,0.6,0.6,1.3,0.6,2.3c-0.1,1-0.4,2.2-1,3.6c-0.6,1.3-1.3,2.1-2.1,2.3l-1.3-0.1
		l-1.2,0.2c-0.1,0.1-0.1,0.1-0.2,0.2c-0.1,0.1-0.1,0.1-0.2,0.1c-0.1,0.2-0.2,0.3-0.2,0.3c0.1,0.4,0.4,0.6,1,0.6
		c0.7-0.1,1.5-0.3,2.2-0.6c0.4,0.3,0.5,0.9,0.5,1.9c0,1.9-0.6,3.7-1.6,5.6c-1.3,2.2-3.1,3.4-5.1,3.4c-1.1-0.1-2-0.3-2.6-0.7
		c-0.6-0.6-1-1-1-1.3l0.3-0.3l0.7,0.1c0.7-0.1,1.3-0.3,1.7-0.6c0.4-0.5,0.6-1,0.6-1.7c-0.2-0.6-0.5-1.1-0.7-1.4
		c-0.4-0.3-0.8-0.5-1.2-0.5c-0.8,0.1-1.4,0.4-1.9,0.8c-0.4,0.6-0.6,1.2-0.6,1.9c0.1,1.1,0.5,2,1.2,2.9c0.9,0.8,2.1,1.2,3.8,1.2
		c2.8,0,5.2-0.6,7.1-1.9c1.9-1.3,3-3,3-5.1c-0.1-1.1-0.4-2.1-1-3.1c-0.7-0.9-1.5-1.6-2.3-1.8c2.1-0.5,3.6-1.1,4.5-2.1
		C795.3,743.9,795.7,742.9,795.7,741.6z"/>
</g>
<g>
	<path class="st5" d="M267.1,751.5l-0.4,0.3l-0.2,0.4l-1,1.5l-1.1,1.5c0.2-0.6,0.2-1.2,0.2-1.7c-0.1-1.5-0.5-2.9-1.2-4.4
		c-0.7-1.5-1.7-2.9-2.6-4.1l0.6-0.6c0.3-0.4,0.5-0.6,0.5-0.9c-0.1-0.6-0.4-0.8-0.8-0.8c-0.6,0.2-0.8,0.4-0.9,0.6
		c-0.1,0.3-0.2,0.6-0.2,0.9l0.2,0.8l-2.1,2.8l-3.2,4.5l-0.2,0.4l0.4,0.2l0.3-0.2l2.2-3.1l2.9-3.7c0.2,0.6,0.3,1.1,0.4,1.8l0.2,2.1
		c0,2.5-0.3,4.6-0.9,6.3c-0.7,1.7-1.6,2.5-2.7,2.5l-1.2-0.3c-0.3-0.2-0.5-0.3-0.6-0.5l-0.1-0.1l-0.1-0.1l0.2-0.2
		c1.2-0.2,1.8-0.7,1.8-1.7c-0.2-0.4-0.3-0.6-0.6-0.9c-0.3-0.2-0.6-0.3-0.8-0.3c-0.5,0.1-0.9,0.3-1.2,0.6c-0.4,0.4-0.6,0.7-0.6,1.2
		c0.1,1,0.6,1.9,1.5,2.3c0.6,0.4,1.8,0.6,3.2,0.6c0.8-0.1,1.7-0.3,2.5-0.7c1-0.6,1.9-1.2,2.5-1.9c0.8-0.8,1.9-2.2,3.2-4.3l0.1-0.2
		l0.2-0.4L267.1,751.5z"/>
	<path class="st5" d="M278.5,737.1c-0.4-0.4-0.7-0.6-1.3-0.6c-0.7,0-1.2,0.2-1.7,0.6c-0.4,0.5-0.6,0.9-0.6,1.5
		c0.2,0.7,0.3,1.2,0.5,1.3c0.5,0.3,0.9,0.5,1.4,0.5c0.7-0.1,1.3-0.3,1.7-0.6c0.4-0.5,0.6-0.9,0.6-1.5
		C279,737.9,278.9,737.5,278.5,737.1z M278.3,751.8l-0.2,0.1l-0.4,0.3c0,0.1-0.1,0.1-0.1,0.2c-1.3,1.9-2.1,3.1-2.5,3.5
		c-1.5,1.8-2.8,2.6-3.9,2.6c-0.8-0.1-1.2-0.5-1.2-1.2l0.4-1.4l6.1-11.5l-4.5,0.3l-5.5,7.3l-0.1,0.3l-0.1,0.4l0.4,0.2l0.3-0.3
		l0.2-0.3l4.1-5.6l-3.3,6.6c-0.4,0.8-0.5,1.6-0.5,2.3c0,1,0.3,1.8,0.8,2.4c0.6,0.6,1.5,1,2.5,1c1.1-0.1,2.2-0.5,3.2-1.2
		c1.1-0.8,2.5-2.6,4.4-5.3l0.1-0.3l0.1-0.3L278.3,751.8z"/>
	<path class="st5" d="M300.2,751.9c-0.1,0-0.2,0.1-0.3,0.1c-0.1,0.1-0.2,0.2-0.3,0.3c-1.1,1.8-2.1,3.1-3,3.9
		c-1.2,1.3-2.3,1.9-3.3,1.9c-0.9-0.1-1.5-0.5-1.5-1.2c0.2-0.8,0.4-1.5,0.6-2.1l1.9-2.9c1.2-1.7,1.9-3.3,1.9-4.9
		c-0.1-1.9-0.9-3-2.5-3c-0.8,0-1.7,0.4-2.6,1.1c-0.6,0.5-1.5,1.3-2.5,2.5l0.1-0.7c-0.1-0.8-0.3-1.5-0.7-2c-0.5-0.6-1.2-0.9-2.1-0.9
		c-1.3,0.1-3,1.3-4.9,3.8l-1.7,2.1l-1.5,2.1l-0.2,0.4l0.3,0.3l0.3-0.2l0.3-0.4l2.9-3.7c2-2.5,3.5-3.7,4.4-3.7
		c0.4,0.2,0.6,0.3,0.6,0.5l-0.2,0.6l-0.5,0.9l-6.4,11.8h4l4.5-8.4c0.6-1,1.5-2.2,2.8-3.4c1.3-1.3,2.3-1.9,3.1-1.9
		c0.5,0.2,0.6,0.4,0.6,0.7c0,0.4-0.4,1-1,1.9l-1.9,3c-0.4,0.6-0.6,1-0.8,1.4c0,0.1-0.2,0.6-0.6,1.4c-0.4,1-0.5,1.8-0.5,2.4
		c0,1.3,0.4,2.2,1,2.7c0.5,0.4,1.3,0.6,2.4,0.6c1.5-0.1,2.9-0.7,4.2-2c0.8-0.9,1.8-2.1,2.9-3.7l0,0c0.1-0.2,0.3-0.4,0.4-0.5l0.3-0.6
		L300.2,751.9z"/>
	<path class="st5" d="M314.6,751.6l-0.4,0.3h-0.1c-1.8,2.6-3.3,4.4-4.6,5.2c-1.4,0.8-2.8,1.3-4.2,1.3c-1.2-0.1-1.9-0.7-1.9-2.1
		c0-0.6,0.1-1.3,0.4-1.9l0.6-1.6l0.6-1.2c1.2-2.5,2.5-4.3,3.8-5.5c1-1,1.9-1.5,2.7-1.5c0.6,0,0.9,0.1,1.1,0.3
		c-1.2,0.1-1.8,0.6-1.8,1.6c0.1,0.5,0.3,0.8,0.5,1.1c0.3,0.3,0.6,0.4,1.1,0.4c0.6,0,1.1-0.2,1.3-0.5c0.3-0.4,0.5-0.7,0.5-1.2
		c0-0.7-0.3-1.3-0.8-1.7c-0.5-0.4-1.3-0.6-2.6-0.6c-1.7,0.1-3.3,0.5-4.9,1.2c-2,1-3.5,2.3-4.5,3.8c-0.6,0.7-0.9,1.6-1.2,2.4
		c-0.1,0.2-0.1,0.3-0.1,0.5c-0.1,0.4-0.2,0.8-0.2,1.2l0,0c0,0.2,0,0.4,0,0.6c0.1,1.6,0.6,2.8,1.5,3.8c1,0.9,2.4,1.4,4.1,1.4
		c2.1,0,4-0.7,5.7-2.1c0.9-0.6,1.9-1.9,3.2-3.6c0.2-0.3,0.4-0.6,0.6-0.7l0.2-0.6L314.6,751.6z"/>
	<path class="st5" d="M328.5,751.8l-0.4,0.2c-1.2,1.9-2.3,3.3-3.2,4.3c-1.6,1.5-3.1,2.1-4.6,2.1c-0.7-0.1-1.3-0.3-1.7-0.7
		c-0.4-0.6-0.5-1.2-0.5-1.9l0.3-1.9l0.7-2l2.1-0.2l2.2-0.8c1.3-0.6,2.3-1.4,3.2-2.4c0.6-0.6,1-1.3,1.2-1.9c0.1-0.4,0.2-0.6,0.2-0.8
		c0-1.1-0.9-1.8-2.8-1.8c-3.1,0-5.8,0.9-8,2.9c-1.8,1.5-2.9,3.2-3.2,5c-0.1,0.4-0.2,0.8-0.2,1.3c0,0.1,0,0.2,0,0.3
		c0,1.7,0.5,3,1.5,3.9c1.1,1.1,2.8,1.7,4.8,1.7c2-0.1,4-1.1,5.8-3.2l1-1.3l1.5-2l0.1-0.4V751.8z M322.8,746.7
		c1.3-1.3,2.3-1.9,3.2-1.9c1,0,1.5,0.4,1.5,1.1c-0.1,0.7-0.5,1.6-1.2,2.4c-0.8,0.9-1.8,1.7-3,2.2c-0.7,0.4-1.4,0.6-2,0.6l-1.2,0.2
		h-0.6C320.4,749.4,321.6,747.9,322.8,746.7z"/>
</g>
<g>
	
		<linearGradient id="SVGID_00000111153164243119659170000012569340213428693663_" gradientUnits="userSpaceOnUse" x1="351.0521" y1="232.3582" x2="381.1258" y2="232.3582" gradientTransform="matrix(1 0 0 -1 0 981)">
		<stop  offset="0" style="stop-color:#939598"/>
		<stop  offset="0.4723" style="stop-color:#E6E7E8"/>
		<stop  offset="0.8045" style="stop-color:#BBBDBF"/>
		<stop  offset="1" style="stop-color:#A7A9AC"/>
	</linearGradient>
	<path style="fill:url(#SVGID_00000111153164243119659170000012569340213428693663_);" d="M381.2,763v4.6l-5.5-3.8
		c-1.8,1.7-5.5,2.4-11,2.4c-5.6,0-9.3-0.8-11-2.4c-1.8-1.7-2.6-5.1-2.6-10.5v-23.7h2h2.1v22.7c0,4.4,0.6,7.1,1.7,8.3
		c1.1,1.1,3.7,1.7,7.8,1.7c3.4,0,5.8-0.4,7.1-1.2c-0.2-0.2-0.4-0.4-0.6-0.5c-0.2-0.1-0.5-0.2-0.8-0.5v-4.9l3.2,2.4
		c0.3-1.4,0.4-3.2,0.4-5.3v-22.7h2h2v23.7c0,2.9-0.3,5.2-0.7,7c-0.1,0.3,0.6,0.7,1.8,1.6C379.6,762,380.3,762.4,381.2,763z"/>
	
		<linearGradient id="SVGID_00000013888192352417034820000017190284067825238923_" gradientUnits="userSpaceOnUse" x1="396.1372" y1="233.1468" x2="427.8274" y2="233.1468" gradientTransform="matrix(1 0 0 -1 0 981)">
		<stop  offset="0" style="stop-color:#939598"/>
		<stop  offset="0.4723" style="stop-color:#E6E7E8"/>
		<stop  offset="0.8045" style="stop-color:#BBBDBF"/>
		<stop  offset="1" style="stop-color:#A7A9AC"/>
	</linearGradient>
	<path style="fill:url(#SVGID_00000013888192352417034820000017190284067825238923_);" d="M423.3,756.2v10h-2h-2.1v-8.4v-8.7v-5.6
		c0-4.4-0.6-7.1-1.7-8.3c-1.1-1.1-3.7-1.8-7.8-1.8c-4.1,0-6.7,0.6-7.8,1.8c-1.1,1.1-1.7,3.9-1.7,8.3v2.2h-2h-2v-3.2
		c0-5.4,0.8-8.8,2.6-10.5s5.4-2.5,10.9-2.5c5.6,0,9.2,0.8,10.9,2.4c1.8,1.7,2.6,5.1,2.6,10.5v9.7h4.5v3.9h-4.5V756.2z"/>
	
		<linearGradient id="SVGID_00000178896442601510909420000004124847652494576268_" gradientUnits="userSpaceOnUse" x1="444.4211" y1="232.08" x2="474.4948" y2="232.08" gradientTransform="matrix(1 0 0 -1 0 981)">
		<stop  offset="0" style="stop-color:#939598"/>
		<stop  offset="0.4723" style="stop-color:#E6E7E8"/>
		<stop  offset="0.8045" style="stop-color:#BBBDBF"/>
		<stop  offset="1" style="stop-color:#A7A9AC"/>
	</linearGradient>
	<path style="fill:url(#SVGID_00000178896442601510909420000004124847652494576268_);" d="M474.5,763.3v4.6l-5.5-3.8
		c-1.8,1.7-5.5,2.4-11,2.4c-5.6,0-9.3-0.8-11-2.4c-1.8-1.7-2.6-5.1-2.6-10.5v-23.7h2h2.1v22.7c0,4.4,0.6,7.1,1.7,8.3
		c1.1,1.1,3.7,1.7,7.8,1.7c3.4,0,5.8-0.4,7.1-1.2c-0.2-0.2-0.4-0.4-0.6-0.5c-0.2-0.1-0.5-0.2-0.8-0.5v-4.9l3.2,2.4
		c0.3-1.4,0.4-3.2,0.4-5.3v-22.7h2h2v23.7c0,2.9-0.3,5.2-0.7,7c-0.1,0.3,0.6,0.7,1.8,1.6C473,762.4,473.6,762.8,474.5,763.3z"/>
	
		<linearGradient id="SVGID_00000070105293410288482420000011944044019386289077_" gradientUnits="userSpaceOnUse" x1="490.0887" y1="232.8685" x2="521.7789" y2="232.8685" gradientTransform="matrix(1 0 0 -1 0 981)">
		<stop  offset="0" style="stop-color:#939598"/>
		<stop  offset="0.4723" style="stop-color:#E6E7E8"/>
		<stop  offset="0.8045" style="stop-color:#BBBDBF"/>
		<stop  offset="1" style="stop-color:#A7A9AC"/>
	</linearGradient>
	<path style="fill:url(#SVGID_00000070105293410288482420000011944044019386289077_);" d="M521.7,729.9v3.9h-4.5v19.8
		c0,5.4-0.8,8.8-2.6,10.5s-5.4,2.5-10.9,2.5s-9.3-0.8-11-2.4c-1.8-1.7-2.6-5.1-2.6-10.5v-23.7h2h2.1v22.6c0,4.4,0.6,7.1,1.7,8.3
		c1.1,1.1,3.7,1.7,7.8,1.7c4.1,0,6.8-0.6,7.8-1.8c1.1-1.1,1.7-3.9,1.7-8.3v-22.7L521.7,729.9L521.7,729.9z"/>
	
		<linearGradient id="SVGID_00000005976570383639901400000017976608296253002148_" gradientUnits="userSpaceOnUse" x1="537.7601" y1="233.0077" x2="563.5496" y2="233.0077" gradientTransform="matrix(1 0 0 -1 0 981)">
		<stop  offset="0" style="stop-color:#939598"/>
		<stop  offset="0.4723" style="stop-color:#E6E7E8"/>
		<stop  offset="0.8045" style="stop-color:#BBBDBF"/>
		<stop  offset="1" style="stop-color:#A7A9AC"/>
	</linearGradient>
	<path style="fill:url(#SVGID_00000005976570383639901400000017976608296253002148_);" d="M537.8,729.9h4.2v10.5
		c0.8-0.9,1.8-1.6,2.6-2c1.4-0.6,3.3-1,5.8-1c2.9,0,5.1,0.2,6.7,0.6c1.7,0.4,3,1,3.9,1.9c1.7,1.7,2.5,5.2,2.5,10.5v5.1h-4.1v-4.1
		c0-4.4-0.6-7.1-1.7-8.3c-0.6-0.6-1.4-1-2.6-1.3c-1.1-0.3-2.8-0.5-4.8-0.5s-3.5,0.1-4.5,0.4c-1,0.3-1.8,0.7-2.3,1.3
		c-0.6,0.6-1,1.2-1.3,1.9c-0.3,0.6-0.4,1.2-0.4,1.7v4.8V766h-2.1h-2v-15.3v-17.1L537.8,729.9L537.8,729.9z"/>
	
		<linearGradient id="SVGID_00000013903070132354121690000008451986334865135256_" gradientUnits="userSpaceOnUse" x1="580.6151" y1="233.1004" x2="607.7961" y2="233.1004" gradientTransform="matrix(1 0 0 -1 0 981)">
		<stop  offset="0" style="stop-color:#939598"/>
		<stop  offset="0.4723" style="stop-color:#E6E7E8"/>
		<stop  offset="0.8045" style="stop-color:#BBBDBF"/>
		<stop  offset="1" style="stop-color:#A7A9AC"/>
	</linearGradient>
	<path style="fill:url(#SVGID_00000013903070132354121690000008451986334865135256_);" d="M605.7,766.2h-1.9v-22.7
		c0-4.4-0.6-7.1-1.7-8.3c-1.1-1.1-3.7-1.8-7.8-1.8c-4.1,0-6.7,0.6-7.8,1.7s-1.7,3.9-1.7,8.3v22.7h-2.1h-2v-23.7
		c0-5.4,0.8-8.9,2.6-10.5c1.8-1.7,5.4-2.4,11-2.4c5.6,0,9.3,0.8,10.9,2.5c1.8,1.7,2.6,5.1,2.6,10.5v23.7H605.7z"/>
	
		<linearGradient id="SVGID_00000067955258234226959940000013451392455844945554_" gradientUnits="userSpaceOnUse" x1="625.1933" y1="233.0076" x2="650.6929" y2="233.0076" gradientTransform="matrix(1 0 0 -1 0 981)">
		<stop  offset="0" style="stop-color:#939598"/>
		<stop  offset="0.4723" style="stop-color:#E6E7E8"/>
		<stop  offset="0.8045" style="stop-color:#BBBDBF"/>
		<stop  offset="1" style="stop-color:#A7A9AC"/>
	</linearGradient>
	<path style="fill:url(#SVGID_00000067955258234226959940000013451392455844945554_);" d="M648.2,752.4h2.5v3.2h-6.6v-4.7
		c0-4.1-0.6-6.6-1.7-7.8c-0.8-0.9-1.6-1.4-2-1.6c-0.5-0.1-1.5-0.2-3-0.2c-1.9,0-3.3,0.1-4.2,0.4c-0.8,0.3-1.6,0.7-2.2,1.4
		c-0.6,0.6-0.9,1.1-1.2,1.8c-0.3,0.6-0.4,1.2-0.4,1.7v4.8v14.8h-2.1h-2v-15.3v-17.1v-3.9h4.2v10.5c1.2-1.3,2.3-2.1,3.3-2.5
		c1-0.4,2.6-0.6,4.6-0.6c2.6,0,4.5,0.2,5.6,0.6c0.7,0.3,1.6,0.8,2.7,1.9c1.7,1.7,2.5,5.2,2.5,10.5V752.4z"/>
	
		<linearGradient id="SVGID_00000130609702581032457790000012161107533954330018_" gradientUnits="userSpaceOnUse" x1="666.1838" y1="232.683" x2="697.8742" y2="232.683" gradientTransform="matrix(1 0 0 -1 0 981)">
		<stop  offset="0" style="stop-color:#939598"/>
		<stop  offset="0.4723" style="stop-color:#E6E7E8"/>
		<stop  offset="0.8045" style="stop-color:#BBBDBF"/>
		<stop  offset="1" style="stop-color:#A7A9AC"/>
	</linearGradient>
	<path style="fill:url(#SVGID_00000130609702581032457790000012161107533954330018_);" d="M697.9,729.9v3.9h-4.5v19.9
		c0,5.4-0.8,8.8-2.6,10.5s-5.4,2.5-10.9,2.5c-5.6,0-9.3-0.8-11-2.4c-1.8-1.7-2.6-5.1-2.6-10.5v-23.7h2h2.1v22.7
		c0,4.4,0.6,7.1,1.7,8.3s3.7,1.7,7.8,1.7s6.8-0.6,7.8-1.8c1.1-1.1,1.7-3.9,1.7-8.3V730L697.9,729.9L697.9,729.9z"/>
</g>
<rect x="229.2" y="714.7" class="st5" width="588.6" height="2.8"/>
<linearGradient id="SVGID_00000110453153394769875320000013848603103863109761_" gradientUnits="userSpaceOnUse" x1="229.4336" y1="309.9144" x2="309.3066" y2="309.9144" gradientTransform="matrix(1 0 0 -1 0 981)">
	<stop  offset="0" style="stop-color:#939598"/>
	<stop  offset="0.4723" style="stop-color:#E6E7E8"/>
	<stop  offset="0.8045" style="stop-color:#BBBDBF"/>
	<stop  offset="1" style="stop-color:#A7A9AC"/>
</linearGradient>
<path style="fill:url(#SVGID_00000110453153394769875320000013848603103863109761_);" d="M262,639.6h7.4h7.4l32.5,63h-5.8h-5.9
	l-6.5-13.2h-43.5l-6.8,13.2h-5.6h-5.8L262,639.6z M269.4,646.6L251,682.5h36.5L269.4,646.6L269.4,646.6z"/>
<linearGradient id="SVGID_00000124148606348093528650000008705536414887268253_" gradientUnits="userSpaceOnUse" x1="319.511" y1="309.9144" x2="394.189" y2="309.9144" gradientTransform="matrix(1 0 0 -1 0 981)">
	<stop  offset="0" style="stop-color:#939598"/>
	<stop  offset="2.345801e-03" style="stop-color:#ABADAF"/>
	<stop  offset="5.257715e-03" style="stop-color:#C1C2C4"/>
	<stop  offset="8.696284e-03" style="stop-color:#D2D3D4"/>
	<stop  offset="1.294918e-02" style="stop-color:#DDDEE0"/>
	<stop  offset="1.891514e-02" style="stop-color:#E4E5E6"/>
	<stop  offset="3.548182e-02" style="stop-color:#E6E7E8"/>
	<stop  offset="0.5115" style="stop-color:#E4E5E6"/>
	<stop  offset="0.6829" style="stop-color:#DDDEE0"/>
	<stop  offset="0.8051" style="stop-color:#D2D3D4"/>
	<stop  offset="0.9032" style="stop-color:#C1C2C5"/>
	<stop  offset="0.987" style="stop-color:#ABADB0"/>
	<stop  offset="1" style="stop-color:#A7A9AC"/>
</linearGradient>
<path style="fill:url(#SVGID_00000124148606348093528650000008705536414887268253_);" d="M319.5,639.6h5.5h29.2
	c16,0,26.7,1.9,32,5.5c5.3,3.7,8,10.9,8,21.7v8.4c0,10.9-2.5,18.2-7.4,21.8c-5,3.7-14.9,5.6-29.9,5.6h-31.8h-5.5L319.5,639.6
	L319.5,639.6z M330.6,695.7h26.2c11,0,18.3-1.3,21.5-3.8c3.2-2.5,4.9-8.1,4.9-16.7v-8.2c0-8.6-1.8-14.2-5.3-16.8
	c-3.5-2.6-11.4-3.9-23.7-3.9h-23.7V695.7z"/>
<linearGradient id="SVGID_00000018233421140960414980000013945001424573227402_" gradientUnits="userSpaceOnUse" x1="402.1365" y1="309.9144" x2="481.9676" y2="309.9144" gradientTransform="matrix(1 0 0 -1 0 981)">
	<stop  offset="0" style="stop-color:#939598"/>
	<stop  offset="0.4723" style="stop-color:#E6E7E8"/>
	<stop  offset="0.8045" style="stop-color:#BBBDBF"/>
	<stop  offset="1" style="stop-color:#A7A9AC"/>
</linearGradient>
<path style="fill:url(#SVGID_00000018233421140960414980000013945001424573227402_);" d="M434.7,639.6h7.4h7.4l32.5,63h-5.8h-5.9
	l-6.5-13.2h-43.3l-6.8,13.2h-5.6h-5.8L434.7,639.6z M442.2,646.6l-18.5,35.9h36.5L442.2,646.6L442.2,646.6z"/>
<linearGradient id="SVGID_00000063592046116952041360000010791125366885403539_" gradientUnits="userSpaceOnUse" x1="491.7806" y1="309.9144" x2="589.3723" y2="309.9144" gradientTransform="matrix(1 0 0 -1 0 981)">
	<stop  offset="0" style="stop-color:#939598"/>
	<stop  offset="0.4723" style="stop-color:#E6E7E8"/>
	<stop  offset="0.8045" style="stop-color:#BBBDBF"/>
	<stop  offset="1" style="stop-color:#A7A9AC"/>
</linearGradient>
<path style="fill:url(#SVGID_00000063592046116952041360000010791125366885403539_);" d="M502.8,702.6h-5.6h-5.5v-63h8.3h8.3
	l32.3,52l32.3-52h8.3h8.3v63h-5.5h-5.6v-53.8L545,702.6h-4.4h-4.5l-33.3-53.7L502.8,702.6L502.8,702.6z"/>
<linearGradient id="SVGID_00000134244343026247872120000008447389493487459718_" gradientUnits="userSpaceOnUse" x1="605.7762" y1="309.9144" x2="616.8" y2="309.9144" gradientTransform="matrix(1 0 0 -1 0 981)">
	<stop  offset="0" style="stop-color:#E6E7E8"/>
	<stop  offset="0.6295" style="stop-color:#BBBDBF"/>
	<stop  offset="1" style="stop-color:#A7A9AC"/>
</linearGradient>
<path style="fill:url(#SVGID_00000134244343026247872120000008447389493487459718_);" d="M605.8,639.6h5.6h5.5v63h-5.5h-5.6V639.6z"
	/>
<linearGradient id="SVGID_00000142167647593110214170000004039445044719981465_" gradientUnits="userSpaceOnUse" x1="632.8803" y1="309.6825" x2="704.1259" y2="309.6825" gradientTransform="matrix(1 0 0 -1 0 981)">
	<stop  offset="0" style="stop-color:#939598"/>
	<stop  offset="0.4723" style="stop-color:#E6E7E8"/>
	<stop  offset="0.8045" style="stop-color:#BBBDBF"/>
	<stop  offset="1" style="stop-color:#A7A9AC"/>
</linearGradient>
<path style="fill:url(#SVGID_00000142167647593110214170000004039445044719981465_);" d="M704.1,680.7c0,9.3-2.3,15.3-6.9,18.2
	s-14.2,4.3-28.8,4.3c-14.7,0-24.3-1.4-28.9-4.3c-4.5-2.8-6.8-8.9-6.8-18.3v-41.1h5.5h5.6v39.4c0,7.6,1.5,12.3,4.4,14.4
	c2.9,1.9,9.6,3,20.3,3c10.9,0,17.6-1,20.5-3c2.9-2,4.3-6.8,4.3-14.3v-39.4h5.3h5.3v41.1H704.1z"/>
<linearGradient id="SVGID_00000009591471210224956980000008653229633638785682_" gradientUnits="userSpaceOnUse" x1="720.4529" y1="309.9144" x2="818.0446" y2="309.9144" gradientTransform="matrix(1 0 0 -1 0 981)">
	<stop  offset="0" style="stop-color:#939598"/>
	<stop  offset="0.4723" style="stop-color:#E6E7E8"/>
	<stop  offset="0.8045" style="stop-color:#BBBDBF"/>
	<stop  offset="1" style="stop-color:#A7A9AC"/>
</linearGradient>
<path style="fill:url(#SVGID_00000009591471210224956980000008653229633638785682_);" d="M731.5,702.6h-5.6h-5.5v-63h8.3h8.3
	l32.3,52l32.3-52h8.3h8.3v63h-5.5H807v-53.8l-33.3,53.8h-4.4h-4.5l-33.3-53.7L731.5,702.6L731.5,702.6z"/>
</svg>
